<svg width="685" height="187" viewBox="0 0 685 187" fill="none" xmlns="http://www.w3.org/2000/svg">
<rect x="197" y="26" width="135" height="135" fill="#122545" fill-opacity="0.1"/>
<rect x="342" y="32" width="123" height="123" fill="#AFB6C0"/>
<rect x="475" y="39" width="109" height="109" fill="#747C88"/>
<rect x="594" y="48" width="91" height="91" fill="#122545"/>
<rect width="187" height="187" fill="#122545" fill-opacity="0.04"/>
<path d="M79.7308 88.1193C79.1286 88.1193 78.5916 88.0085 78.12 87.7869C77.6513 87.5653 77.2791 87.2599 77.0036 86.8707C76.728 86.4815 76.5845 86.0355 76.5732 85.5327H78.3629C78.3828 85.8707 78.5249 86.1449 78.7891 86.3551C79.0533 86.5653 79.3672 86.6705 79.7308 86.6705C80.0206 86.6705 80.2763 86.6065 80.4979 86.4787C80.7223 86.348 80.897 86.1676 81.022 85.9375C81.1499 85.7045 81.2138 85.4375 81.2138 85.1364C81.2138 84.8295 81.1484 84.5597 81.0178 84.3267C80.8899 84.0937 80.7124 83.9119 80.4851 83.7812C80.2578 83.6506 79.9979 83.5838 79.7053 83.581C79.4496 83.581 79.201 83.6335 78.9595 83.7386C78.7209 83.8437 78.5348 83.9872 78.4013 84.169L76.7607 83.875L77.174 79.2727H82.5092V80.7812H78.6953L78.4695 82.9673H78.5206C78.674 82.7514 78.9055 82.5724 79.2152 82.4304C79.5249 82.2884 79.8714 82.2173 80.255 82.2173C80.7805 82.2173 81.2493 82.3409 81.6612 82.5881C82.0732 82.8352 82.3984 83.1747 82.6371 83.6065C82.8757 84.0355 82.9936 84.5298 82.9908 85.0895C82.9936 85.6776 82.8572 86.2003 82.5817 86.6577C82.3089 87.1122 81.9268 87.4702 81.4354 87.7315C80.9467 87.9901 80.3786 88.1193 79.7308 88.1193ZM85.9865 86.8068L85.9396 87.2756C85.9027 87.6506 85.8317 88.0241 85.7266 88.3963C85.6243 88.7713 85.5163 89.1108 85.4027 89.4148C85.2919 89.7188 85.2024 89.9574 85.1342 90.1307H83.9581C84.0007 89.9631 84.0589 89.7287 84.1328 89.4276C84.2067 89.1293 84.2763 88.794 84.3416 88.4219C84.407 88.0497 84.4482 87.6705 84.4652 87.2841L84.4865 86.8068H85.9865ZM90.6271 88.1193C90.1783 88.1165 89.745 88.0412 89.3274 87.8935C88.9126 87.7457 88.5405 87.5057 88.2109 87.1733C87.8814 86.8409 87.62 86.4006 87.4268 85.8523C87.2365 85.304 87.1413 84.6307 87.1413 83.8324C87.1442 83.0994 87.228 82.4446 87.3928 81.8679C87.5604 81.2884 87.799 80.7969 88.1087 80.3935C88.4212 79.9901 88.7947 79.6832 89.2294 79.473C89.6641 79.2599 90.1513 79.1534 90.6911 79.1534C91.2734 79.1534 91.7876 79.267 92.2337 79.4943C92.6797 79.7187 93.0376 80.0241 93.3075 80.4105C93.5803 80.7969 93.745 81.2301 93.8018 81.7102H91.9822C91.9112 81.4062 91.7621 81.1676 91.5348 80.9943C91.3075 80.821 91.0263 80.7344 90.6911 80.7344C90.1229 80.7344 89.6911 80.9815 89.3956 81.4759C89.103 81.9702 88.9538 82.642 88.9482 83.4915H89.0078C89.1385 83.233 89.3146 83.0128 89.5362 82.831C89.7607 82.6463 90.0149 82.5057 90.299 82.4091C90.5859 82.3097 90.8885 82.2599 91.2067 82.2599C91.7237 82.2599 92.1839 82.3821 92.5874 82.6264C92.9908 82.8679 93.3089 83.2003 93.5419 83.6236C93.7749 84.0469 93.8913 84.5312 93.8913 85.0767C93.8913 85.6676 93.7536 86.1932 93.478 86.6534C93.2053 87.1136 92.8232 87.4744 92.3317 87.7358C91.843 87.9943 91.2749 88.1222 90.6271 88.1193ZM90.6186 86.6705C90.9027 86.6705 91.157 86.6023 91.3814 86.4659C91.6058 86.3295 91.782 86.1449 91.9098 85.9119C92.0376 85.679 92.1016 85.4176 92.1016 85.1278C92.1016 84.8381 92.0376 84.5781 91.9098 84.348C91.7848 84.1179 91.6115 83.9347 91.3899 83.7983C91.1683 83.6619 90.9155 83.5938 90.6314 83.5938C90.4183 83.5938 90.2209 83.6335 90.0391 83.7131C89.8601 83.7926 89.7024 83.9034 89.5661 84.0455C89.4325 84.1875 89.3274 84.3523 89.2507 84.5398C89.174 84.7244 89.1357 84.9219 89.1357 85.1321C89.1357 85.4134 89.1996 85.6705 89.3274 85.9034C89.4581 86.1364 89.6342 86.3224 89.8558 86.4616C90.0803 86.6009 90.3345 86.6705 90.6186 86.6705ZM95.5447 88L99.1626 80.8409V80.7812H94.9482V79.2727H101.072V80.8026L97.4496 88H95.5447ZM105.416 88.1193C104.76 88.1193 104.176 88.0128 103.665 87.7997C103.156 87.5838 102.757 87.2898 102.467 86.9176C102.178 86.5455 102.033 86.1236 102.033 85.652C102.033 85.2884 102.115 84.9545 102.28 84.6506C102.447 84.3438 102.675 84.0895 102.962 83.8878C103.249 83.6832 103.57 83.5526 103.925 83.4957V83.4361C103.459 83.3423 103.081 83.1165 102.791 82.7585C102.501 82.3977 102.357 81.9787 102.357 81.5014C102.357 81.0497 102.489 80.6477 102.753 80.2955C103.017 79.9403 103.379 79.6619 103.839 79.4602C104.303 79.2557 104.828 79.1534 105.416 79.1534C106.004 79.1534 106.528 79.2557 106.989 79.4602C107.452 79.6648 107.815 79.9446 108.08 80.2997C108.344 80.652 108.477 81.0526 108.48 81.5014C108.477 81.9815 108.33 82.4006 108.037 82.7585C107.744 83.1165 107.369 83.3423 106.912 83.4361V83.4957C107.261 83.5526 107.578 83.6832 107.862 83.8878C108.149 84.0895 108.376 84.3438 108.544 84.6506C108.714 84.9545 108.801 85.2884 108.804 85.652C108.801 86.1236 108.655 86.5455 108.365 86.9176C108.075 87.2898 107.675 87.5838 107.163 87.7997C106.655 88.0128 106.072 88.1193 105.416 88.1193ZM105.416 86.7642C105.709 86.7642 105.964 86.7116 106.183 86.6065C106.402 86.4986 106.572 86.3509 106.695 86.1634C106.82 85.973 106.882 85.7543 106.882 85.5071C106.882 85.2543 106.818 85.0312 106.69 84.8381C106.563 84.642 106.389 84.4886 106.17 84.3778C105.952 84.2642 105.7 84.2074 105.416 84.2074C105.135 84.2074 104.884 84.2642 104.662 84.3778C104.44 84.4886 104.266 84.642 104.138 84.8381C104.013 85.0312 103.95 85.2543 103.95 85.5071C103.95 85.7543 104.011 85.973 104.134 86.1634C104.256 86.3509 104.428 86.4986 104.649 86.6065C104.871 86.7116 105.126 86.7642 105.416 86.7642ZM105.416 82.8651C105.661 82.8651 105.878 82.8153 106.068 82.7159C106.259 82.6165 106.408 82.4787 106.516 82.3026C106.624 82.1264 106.678 81.9233 106.678 81.6932C106.678 81.4659 106.624 81.267 106.516 81.0966C106.408 80.9233 106.26 80.7884 106.072 80.6918C105.885 80.5923 105.666 80.5426 105.416 80.5426C105.169 80.5426 104.95 80.5923 104.76 80.6918C104.57 80.7884 104.42 80.9233 104.312 81.0966C104.207 81.267 104.155 81.4659 104.155 81.6932C104.155 81.9233 104.209 82.1264 104.317 82.3026C104.425 82.4787 104.574 82.6165 104.764 82.7159C104.955 82.8153 105.172 82.8651 105.416 82.8651ZM44.3908 103V94.2727H47.3397C48.0243 94.2727 48.584 94.3963 49.0186 94.6435C49.4561 94.8878 49.78 95.2188 49.9902 95.6364C50.2005 96.054 50.3056 96.5199 50.3056 97.0341C50.3056 97.5483 50.2005 98.0156 49.9902 98.4361C49.7828 98.8565 49.4618 99.1918 49.0272 99.4418C48.5925 99.6889 48.0357 99.8125 47.3567 99.8125H45.2431V98.875H47.3226C47.7914 98.875 48.1678 98.794 48.4519 98.6321C48.736 98.4702 48.9419 98.2514 49.0698 97.9759C49.2005 97.6974 49.2658 97.3835 49.2658 97.0341C49.2658 96.6847 49.2005 96.3722 49.0698 96.0966C48.9419 95.821 48.7346 95.6051 48.4476 95.4489C48.1607 95.2898 47.78 95.2102 47.3056 95.2102H45.4476V103H44.3908ZM55.9966 100.324V96.4545H57.0023V103H55.9966V101.892H55.9284C55.775 102.224 55.5364 102.507 55.2125 102.74C54.8887 102.97 54.4796 103.085 53.9853 103.085C53.5762 103.085 53.2125 102.996 52.8944 102.817C52.5762 102.635 52.3262 102.362 52.1444 101.999C51.9625 101.632 51.8716 101.17 51.8716 100.614V96.4545H52.8773V100.545C52.8773 101.023 53.0108 101.403 53.2779 101.688C53.5478 101.972 53.8915 102.114 54.3091 102.114C54.5591 102.114 54.8134 102.05 55.0719 101.922C55.3333 101.794 55.552 101.598 55.7282 101.334C55.9071 101.07 55.9966 100.733 55.9966 100.324ZM58.9806 103V94.2727H59.9863V97.4943H60.0716C60.1454 97.3807 60.2477 97.2358 60.3784 97.0597C60.5119 96.8807 60.7022 96.7216 60.9494 96.5824C61.1994 96.4403 61.5375 96.3693 61.9636 96.3693C62.5147 96.3693 63.0005 96.5071 63.421 96.7827C63.8414 97.0582 64.1696 97.4489 64.4054 97.9545C64.6412 98.4602 64.7591 99.0568 64.7591 99.7443C64.7591 100.438 64.6412 101.038 64.4054 101.547C64.1696 102.053 63.8429 102.445 63.4252 102.723C63.0076 102.999 62.5261 103.136 61.9806 103.136C61.5602 103.136 61.2235 103.067 60.9707 102.928C60.7179 102.786 60.5233 102.625 60.3869 102.446C60.2505 102.264 60.1454 102.114 60.0716 101.994H59.9522V103H58.9806ZM59.9693 99.7273C59.9693 100.222 60.0417 100.658 60.1866 101.036C60.3315 101.411 60.5431 101.705 60.8216 101.918C61.1 102.128 61.4409 102.233 61.8443 102.233C62.2647 102.233 62.6156 102.122 62.8968 101.901C63.1809 101.676 63.394 101.375 63.536 100.997C63.6809 100.616 63.7534 100.193 63.7534 99.7273C63.7534 99.267 63.6824 98.8523 63.5403 98.483C63.4011 98.1108 63.1895 97.8168 62.9054 97.6009C62.6241 97.3821 62.2704 97.2727 61.8443 97.2727C61.4352 97.2727 61.0914 97.3764 60.813 97.5838C60.5346 97.7884 60.3244 98.0753 60.1824 98.4446C60.0403 98.8111 59.9693 99.2386 59.9693 99.7273ZM67.3031 94.2727V103H66.2974V94.2727H67.3031ZM69.1451 103V96.4545H70.1507V103H69.1451ZM69.6564 95.3636C69.4604 95.3636 69.2914 95.2969 69.1493 95.1634C69.0101 95.0298 68.9405 94.8693 68.9405 94.6818C68.9405 94.4943 69.0101 94.3338 69.1493 94.2003C69.2914 94.0668 69.4604 94 69.6564 94C69.8525 94 70.0201 94.0668 70.1593 94.2003C70.3013 94.3338 70.3723 94.4943 70.3723 94.6818C70.3723 94.8693 70.3013 95.0298 70.1593 95.1634C70.0201 95.2969 69.8525 95.3636 69.6564 95.3636ZM74.6518 103.136C74.0382 103.136 73.5098 102.991 73.0666 102.702C72.6234 102.412 72.2825 102.013 72.0439 101.504C71.8052 100.996 71.6859 100.415 71.6859 99.7614C71.6859 99.0966 71.8081 98.5099 72.0524 98.0014C72.2995 97.4901 72.6433 97.0909 73.0836 96.804C73.5268 96.5142 74.0439 96.3693 74.6348 96.3693C75.095 96.3693 75.5098 96.4545 75.8791 96.625C76.2484 96.7955 76.551 97.0341 76.7868 97.3409C77.0225 97.6477 77.1689 98.0057 77.2257 98.4148H76.22C76.1433 98.1165 75.9728 97.8523 75.7086 97.6222C75.4473 97.3892 75.095 97.2727 74.6518 97.2727C74.2598 97.2727 73.916 97.375 73.6206 97.5795C73.3279 97.7812 73.0993 98.0668 72.9345 98.4361C72.7725 98.8026 72.6916 99.233 72.6916 99.7273C72.6916 100.233 72.7711 100.673 72.9302 101.048C73.0922 101.423 73.3194 101.714 73.612 101.922C73.9075 102.129 74.2541 102.233 74.6518 102.233C74.9132 102.233 75.1504 102.188 75.3635 102.097C75.5765 102.006 75.7569 101.875 75.9047 101.705C76.0524 101.534 76.1575 101.33 76.22 101.091H77.2257C77.1689 101.477 77.0282 101.825 76.8038 102.135C76.5822 102.442 76.2882 102.686 75.9217 102.868C75.5581 103.047 75.1348 103.136 74.6518 103.136ZM89.2299 97H88.1731C88.1106 96.696 88.0012 96.429 87.845 96.1989C87.6916 95.9688 87.5041 95.7756 87.2825 95.6193C87.0637 95.4602 86.8208 95.3409 86.5538 95.2614C86.2868 95.1818 86.0083 95.142 85.7186 95.142C85.1902 95.142 84.7115 95.2756 84.2825 95.5426C83.8564 95.8097 83.5169 96.2031 83.264 96.723C83.014 97.2429 82.889 97.8807 82.889 98.6364C82.889 99.392 83.014 100.03 83.264 100.55C83.5169 101.07 83.8564 101.463 84.2825 101.73C84.7115 101.997 85.1902 102.131 85.7186 102.131C86.0083 102.131 86.2868 102.091 86.5538 102.011C86.8208 101.932 87.0637 101.814 87.2825 101.658C87.5041 101.499 87.6916 101.304 87.845 101.074C88.0012 100.841 88.1106 100.574 88.1731 100.273H89.2299C89.1504 100.719 89.0055 101.118 88.7953 101.47C88.5851 101.822 88.3237 102.122 88.0112 102.369C87.6987 102.614 87.3478 102.8 86.9586 102.928C86.5723 103.055 86.1589 103.119 85.7186 103.119C84.9743 103.119 84.3123 102.938 83.7328 102.574C83.1532 102.21 82.6973 101.693 82.3649 101.023C82.0325 100.352 81.8663 99.5568 81.8663 98.6364C81.8663 97.7159 82.0325 96.9205 82.3649 96.25C82.6973 95.5795 83.1532 95.0625 83.7328 94.6989C84.3123 94.3352 84.9743 94.1534 85.7186 94.1534C86.1589 94.1534 86.5723 94.2173 86.9586 94.3452C87.3478 94.473 87.6987 94.6605 88.0112 94.9077C88.3237 95.152 88.5851 95.4503 88.7953 95.8026C89.0055 96.152 89.1504 96.5511 89.2299 97ZM93.4604 103.136C92.8695 103.136 92.351 102.996 91.905 102.714C91.4618 102.433 91.1152 102.04 90.8652 101.534C90.6181 101.028 90.4945 100.437 90.4945 99.7614C90.4945 99.0795 90.6181 98.4844 90.8652 97.9759C91.1152 97.4673 91.4618 97.0724 91.905 96.7912C92.351 96.5099 92.8695 96.3693 93.4604 96.3693C94.0513 96.3693 94.5684 96.5099 95.0115 96.7912C95.4576 97.0724 95.8042 97.4673 96.0513 97.9759C96.3013 98.4844 96.4263 99.0795 96.4263 99.7614C96.4263 100.437 96.3013 101.028 96.0513 101.534C95.8042 102.04 95.4576 102.433 95.0115 102.714C94.5684 102.996 94.0513 103.136 93.4604 103.136ZM93.4604 102.233C93.9093 102.233 94.2786 102.118 94.5684 101.888C94.8581 101.658 95.0726 101.355 95.2118 100.98C95.351 100.605 95.4206 100.199 95.4206 99.7614C95.4206 99.3239 95.351 98.9162 95.2118 98.5384C95.0726 98.1605 94.8581 97.8551 94.5684 97.6222C94.2786 97.3892 93.9093 97.2727 93.4604 97.2727C93.0115 97.2727 92.6422 97.3892 92.3525 97.6222C92.0627 97.8551 91.8482 98.1605 91.709 98.5384C91.5698 98.9162 91.5002 99.3239 91.5002 99.7614C91.5002 100.199 91.5698 100.605 91.709 100.98C91.8482 101.355 92.0627 101.658 92.3525 101.888C92.6422 102.118 93.0115 102.233 93.4604 102.233ZM97.9615 103V96.4545H98.9331V97.4773H99.0183C99.1547 97.1278 99.3748 96.8565 99.6788 96.6634C99.9828 96.4673 100.348 96.3693 100.774 96.3693C101.206 96.3693 101.565 96.4673 101.852 96.6634C102.142 96.8565 102.368 97.1278 102.53 97.4773H102.598C102.765 97.1392 103.017 96.8707 103.352 96.6719C103.687 96.4702 104.089 96.3693 104.558 96.3693C105.143 96.3693 105.622 96.5526 105.994 96.919C106.366 97.2827 106.552 97.8494 106.552 98.6193V103H105.547V98.6193C105.547 98.1364 105.415 97.7912 105.15 97.5838C104.886 97.3764 104.575 97.2727 104.217 97.2727C103.757 97.2727 103.4 97.4119 103.148 97.6903C102.895 97.9659 102.768 98.3153 102.768 98.7386V103H101.746V98.517C101.746 98.1449 101.625 97.8452 101.383 97.6179C101.142 97.3878 100.831 97.2727 100.45 97.2727C100.189 97.2727 99.9444 97.3423 99.7172 97.4815C99.4927 97.6207 99.3109 97.8139 99.1717 98.0611C99.0353 98.3054 98.9672 98.5881 98.9672 98.9091V103H97.9615ZM108.391 105.455V96.4545H109.363V97.4943H109.482C109.556 97.3807 109.658 97.2358 109.789 97.0597C109.922 96.8807 110.113 96.7216 110.36 96.5824C110.61 96.4403 110.948 96.3693 111.374 96.3693C111.925 96.3693 112.411 96.5071 112.831 96.7827C113.252 97.0582 113.58 97.4489 113.816 97.9545C114.052 98.4602 114.17 99.0568 114.17 99.7443C114.17 100.438 114.052 101.038 113.816 101.547C113.58 102.053 113.253 102.445 112.836 102.723C112.418 102.999 111.937 103.136 111.391 103.136C110.971 103.136 110.634 103.067 110.381 102.928C110.128 102.786 109.934 102.625 109.797 102.446C109.661 102.264 109.556 102.114 109.482 101.994H109.397V105.455H108.391ZM109.38 99.7273C109.38 100.222 109.452 100.658 109.597 101.036C109.742 101.411 109.954 101.705 110.232 101.918C110.51 102.128 110.851 102.233 111.255 102.233C111.675 102.233 112.026 102.122 112.307 101.901C112.591 101.676 112.805 101.375 112.947 100.997C113.091 100.616 113.164 100.193 113.164 99.7273C113.164 99.267 113.093 98.8523 112.951 98.483C112.812 98.1108 112.6 97.8168 112.316 97.6009C112.035 97.3821 111.681 97.2727 111.255 97.2727C110.846 97.2727 110.502 97.3764 110.224 97.5838C109.945 97.7884 109.735 98.0753 109.593 98.4446C109.451 98.8111 109.38 99.2386 109.38 99.7273ZM117.63 103.153C117.215 103.153 116.839 103.075 116.501 102.919C116.162 102.76 115.894 102.531 115.695 102.233C115.496 101.932 115.397 101.568 115.397 101.142C115.397 100.767 115.471 100.463 115.618 100.23C115.766 99.9943 115.964 99.8097 116.211 99.6761C116.458 99.5426 116.731 99.4432 117.029 99.3778C117.33 99.3097 117.633 99.2557 117.937 99.2159C118.334 99.1648 118.657 99.1264 118.904 99.1009C119.154 99.0724 119.336 99.0256 119.449 98.9602C119.566 98.8949 119.624 98.7812 119.624 98.6193V98.5852C119.624 98.1648 119.509 97.8381 119.279 97.6051C119.052 97.3722 118.706 97.2557 118.243 97.2557C117.763 97.2557 117.387 97.3608 117.114 97.571C116.841 97.7812 116.65 98.0057 116.539 98.2443L115.584 97.9034C115.755 97.5057 115.982 97.196 116.266 96.9744C116.553 96.75 116.866 96.5937 117.204 96.5057C117.545 96.4148 117.88 96.3693 118.209 96.3693C118.42 96.3693 118.661 96.3949 118.934 96.446C119.209 96.4943 119.475 96.5952 119.731 96.7486C119.989 96.902 120.204 97.1335 120.374 97.4432C120.545 97.7528 120.63 98.1676 120.63 98.6875V103H119.624V102.114H119.573C119.505 102.256 119.391 102.408 119.232 102.57C119.073 102.732 118.861 102.869 118.597 102.983C118.333 103.097 118.01 103.153 117.63 103.153ZM117.783 102.25C118.181 102.25 118.516 102.172 118.789 102.016C119.064 101.859 119.272 101.658 119.411 101.411C119.553 101.163 119.624 100.903 119.624 100.631V99.7102C119.581 99.7614 119.488 99.8082 119.343 99.8509C119.201 99.8906 119.036 99.9261 118.849 99.9574C118.664 99.9858 118.483 100.011 118.307 100.034C118.134 100.054 117.993 100.071 117.885 100.085C117.624 100.119 117.38 100.175 117.153 100.251C116.928 100.325 116.746 100.437 116.607 100.588C116.471 100.736 116.403 100.937 116.403 101.193C116.403 101.543 116.532 101.807 116.79 101.986C117.052 102.162 117.383 102.25 117.783 102.25ZM123.471 99.0625V103H122.465V96.4545H123.437V97.4773H123.522C123.676 97.1449 123.909 96.8778 124.221 96.6761C124.534 96.4716 124.937 96.3693 125.431 96.3693C125.874 96.3693 126.262 96.4602 126.595 96.642C126.927 96.821 127.186 97.0938 127.37 97.4602C127.555 97.8239 127.647 98.2841 127.647 98.8409V103H126.642V98.9091C126.642 98.3949 126.508 97.9943 126.241 97.7074C125.974 97.4176 125.607 97.2727 125.142 97.2727C124.82 97.2727 124.534 97.3423 124.281 97.4815C124.031 97.6207 123.833 97.8239 123.688 98.0909C123.544 98.358 123.471 98.6818 123.471 99.0625ZM129.485 103V96.4545H130.491V103H129.485ZM129.996 95.3636C129.8 95.3636 129.631 95.2969 129.489 95.1634C129.35 95.0298 129.28 94.8693 129.28 94.6818C129.28 94.4943 129.35 94.3338 129.489 94.2003C129.631 94.0668 129.8 94 129.996 94C130.192 94 130.36 94.0668 130.499 94.2003C130.641 94.3338 130.712 94.4943 130.712 94.6818C130.712 94.8693 130.641 95.0298 130.499 95.1634C130.36 95.2969 130.192 95.3636 129.996 95.3636ZM135.077 103.136C134.446 103.136 133.902 102.997 133.445 102.719C132.99 102.438 132.639 102.045 132.392 101.543C132.148 101.037 132.026 100.449 132.026 99.7784C132.026 99.108 132.148 98.517 132.392 98.0057C132.639 97.4915 132.983 97.0909 133.423 96.804C133.867 96.5142 134.384 96.3693 134.975 96.3693C135.316 96.3693 135.652 96.4261 135.985 96.5398C136.317 96.6534 136.619 96.8381 136.892 97.0938C137.165 97.3466 137.382 97.6818 137.544 98.0994C137.706 98.517 137.787 99.0312 137.787 99.642V100.068H132.742V99.1989H136.764C136.764 98.8295 136.691 98.5 136.543 98.2102C136.398 97.9205 136.191 97.6918 135.921 97.5241C135.654 97.3565 135.338 97.2727 134.975 97.2727C134.574 97.2727 134.227 97.3722 133.935 97.571C133.645 97.767 133.422 98.0227 133.266 98.3381C133.11 98.6534 133.031 98.9915 133.031 99.3523V99.9318C133.031 100.426 133.117 100.845 133.287 101.189C133.46 101.53 133.7 101.79 134.007 101.969C134.314 102.145 134.671 102.233 135.077 102.233C135.341 102.233 135.58 102.196 135.793 102.122C136.009 102.045 136.195 101.932 136.351 101.781C136.507 101.628 136.628 101.437 136.713 101.21L137.685 101.483C137.583 101.812 137.411 102.102 137.169 102.352C136.928 102.599 136.629 102.793 136.274 102.932C135.919 103.068 135.52 103.136 135.077 103.136ZM143.953 97.9205L143.05 98.1761C142.993 98.0256 142.909 97.8793 142.798 97.7372C142.691 97.5923 142.543 97.473 142.355 97.3793C142.168 97.2855 141.928 97.2386 141.635 97.2386C141.235 97.2386 140.901 97.331 140.634 97.5156C140.369 97.6974 140.237 97.929 140.237 98.2102C140.237 98.4602 140.328 98.6577 140.51 98.8026C140.692 98.9474 140.976 99.0682 141.362 99.1648L142.334 99.4034C142.919 99.5455 143.355 99.7628 143.642 100.055C143.929 100.345 144.073 100.719 144.073 101.176C144.073 101.551 143.965 101.886 143.749 102.182C143.536 102.477 143.237 102.71 142.854 102.881C142.47 103.051 142.024 103.136 141.516 103.136C140.848 103.136 140.296 102.991 139.858 102.702C139.421 102.412 139.144 101.989 139.027 101.432L139.982 101.193C140.073 101.545 140.244 101.81 140.497 101.986C140.753 102.162 141.087 102.25 141.499 102.25C141.968 102.25 142.34 102.151 142.615 101.952C142.894 101.75 143.033 101.509 143.033 101.227C143.033 101 142.953 100.81 142.794 100.656C142.635 100.5 142.391 100.384 142.061 100.307L140.97 100.051C140.371 99.9091 139.931 99.6889 139.649 99.3906C139.371 99.0895 139.232 98.7131 139.232 98.2614C139.232 97.892 139.335 97.5653 139.543 97.2812C139.753 96.9972 140.039 96.7741 140.399 96.6122C140.763 96.4503 141.175 96.3693 141.635 96.3693C142.283 96.3693 142.791 96.5114 143.161 96.7955C143.533 97.0795 143.797 97.4545 143.953 97.9205Z" fill="#122545"/>
<path d="M233.584 91L237.202 83.8409V83.7812H232.987V82.2727H239.111V83.8026L235.489 91H233.584ZM240.955 91L244.573 83.8409V83.7812H240.358V82.2727H246.482V83.8026L242.86 91H240.955ZM248.326 91L251.944 83.8409V83.7812H247.729V82.2727H253.853V83.8026L250.231 91H248.326ZM259.727 87.2159V91H257.912V84.4545H259.642V85.6094H259.719C259.864 85.2287 260.107 84.9276 260.447 84.706C260.788 84.4815 261.202 84.3693 261.688 84.3693C262.142 84.3693 262.538 84.4688 262.876 84.6676C263.214 84.8665 263.477 85.1506 263.665 85.5199C263.852 85.8864 263.946 86.3239 263.946 86.8324V91H262.131V87.1562C262.134 86.7557 262.031 86.4432 261.824 86.2188C261.616 85.9915 261.331 85.8778 260.967 85.8778C260.723 85.8778 260.507 85.9304 260.32 86.0355C260.135 86.1406 259.99 86.294 259.885 86.4957C259.783 86.6946 259.73 86.9347 259.727 87.2159ZM267.243 91.1236C266.826 91.1236 266.453 91.0511 266.127 90.9062C265.8 90.7585 265.542 90.5412 265.351 90.2543C265.164 89.9645 265.07 89.6037 265.07 89.1719C265.07 88.8082 265.137 88.5028 265.27 88.2557C265.404 88.0085 265.586 87.8097 265.816 87.6591C266.046 87.5085 266.307 87.3949 266.6 87.3182C266.895 87.2415 267.205 87.1875 267.529 87.1562C267.909 87.1165 268.216 87.0795 268.449 87.0455C268.682 87.0085 268.851 86.9545 268.956 86.8835C269.061 86.8125 269.114 86.7074 269.114 86.5682V86.5426C269.114 86.2727 269.029 86.0639 268.858 85.9162C268.691 85.7685 268.452 85.6946 268.142 85.6946C267.816 85.6946 267.556 85.767 267.363 85.9119C267.169 86.054 267.042 86.233 266.979 86.4489L265.3 86.3125C265.385 85.9148 265.553 85.571 265.803 85.2812C266.053 84.9886 266.375 84.7642 266.77 84.608C267.168 84.4489 267.628 84.3693 268.151 84.3693C268.515 84.3693 268.863 84.4119 269.195 84.4972C269.53 84.5824 269.827 84.7145 270.086 84.8935C270.347 85.0724 270.553 85.3026 270.703 85.5838C270.854 85.8622 270.929 86.196 270.929 86.5852V91H269.208V90.0923H269.157C269.051 90.2969 268.911 90.4773 268.735 90.6335C268.559 90.7869 268.347 90.9077 268.1 90.9957C267.853 91.081 267.567 91.1236 267.243 91.1236ZM267.763 89.8707C268.03 89.8707 268.266 89.8182 268.471 89.7131C268.675 89.6051 268.836 89.4602 268.952 89.2784C269.069 89.0966 269.127 88.8906 269.127 88.6605V87.9659C269.07 88.0028 268.992 88.0369 268.892 88.0682C268.796 88.0966 268.686 88.1236 268.564 88.1491C268.442 88.1719 268.32 88.1932 268.198 88.2131C268.076 88.2301 267.965 88.2457 267.865 88.2599C267.652 88.2912 267.466 88.3409 267.307 88.4091C267.148 88.4773 267.025 88.5696 266.936 88.6861C266.848 88.7997 266.804 88.9418 266.804 89.1122C266.804 89.3594 266.894 89.5483 267.073 89.679C267.255 89.8068 267.485 89.8707 267.763 89.8707ZM272.338 91V84.4545H274.068V85.6094H274.145C274.281 85.2259 274.508 84.9233 274.826 84.7017C275.145 84.4801 275.525 84.3693 275.968 84.3693C276.417 84.3693 276.799 84.4815 277.115 84.706C277.43 84.9276 277.64 85.2287 277.745 85.6094H277.814C277.947 85.2344 278.189 84.9347 278.538 84.7102C278.89 84.483 279.306 84.3693 279.787 84.3693C280.397 84.3693 280.893 84.5639 281.274 84.9531C281.657 85.3395 281.849 85.8878 281.849 86.598V91H280.038V86.956C280.038 86.5923 279.941 86.3196 279.748 86.1378C279.555 85.956 279.314 85.8651 279.024 85.8651C278.694 85.8651 278.437 85.9702 278.252 86.1804C278.068 86.3878 277.975 86.6619 277.975 87.0028V91H276.216V86.9176C276.216 86.5966 276.123 86.3409 275.939 86.1506C275.757 85.9602 275.517 85.8651 275.218 85.8651C275.017 85.8651 274.835 85.9162 274.673 86.0185C274.514 86.1179 274.387 86.2585 274.294 86.4403C274.2 86.6193 274.153 86.8295 274.153 87.071V91H272.338ZM286.266 91.1278C285.593 91.1278 285.013 90.9915 284.527 90.7188C284.044 90.4432 283.672 90.054 283.411 89.5511C283.15 89.0455 283.019 88.4474 283.019 87.7571C283.019 87.0838 283.15 86.4929 283.411 85.9844C283.672 85.4759 284.04 85.0795 284.515 84.7955C284.992 84.5114 285.551 84.3693 286.194 84.3693C286.625 84.3693 287.027 84.4389 287.4 84.5781C287.775 84.7145 288.101 84.9205 288.38 85.196C288.661 85.4716 288.88 85.8182 289.036 86.2358C289.192 86.6506 289.27 87.1364 289.27 87.6932V88.1918H283.743V87.0668H287.561C287.561 86.8054 287.505 86.5739 287.391 86.3722C287.277 86.1705 287.12 86.0128 286.918 85.8991C286.719 85.7827 286.488 85.7244 286.223 85.7244C285.948 85.7244 285.703 85.7884 285.49 85.9162C285.28 86.0412 285.115 86.2102 284.996 86.4233C284.877 86.6335 284.816 86.8679 284.813 87.1264V88.196C284.813 88.5199 284.873 88.7997 284.992 89.0355C285.114 89.2713 285.286 89.4531 285.507 89.581C285.729 89.7088 285.992 89.7727 286.296 89.7727C286.498 89.7727 286.682 89.7443 286.85 89.6875C287.017 89.6307 287.161 89.5455 287.28 89.4318C287.4 89.3182 287.49 89.179 287.553 89.0142L289.232 89.125C289.147 89.5284 288.972 89.8807 288.708 90.1818C288.446 90.4801 288.108 90.7131 287.694 90.8807C287.282 91.0455 286.806 91.1278 286.266 91.1278ZM295.901 86.321L294.239 86.4233C294.211 86.2812 294.15 86.1534 294.056 86.0398C293.962 85.9233 293.838 85.831 293.685 85.7628C293.534 85.6918 293.354 85.6562 293.144 85.6562C292.863 85.6562 292.625 85.7159 292.432 85.8352C292.239 85.9517 292.142 86.108 292.142 86.304C292.142 86.4602 292.205 86.5923 292.33 86.7003C292.455 86.8082 292.669 86.8949 292.973 86.9602L294.158 87.1989C294.794 87.3295 295.269 87.5398 295.581 87.8295C295.894 88.1193 296.05 88.5 296.05 88.9716C296.05 89.4006 295.924 89.777 295.671 90.1009C295.421 90.4247 295.077 90.6776 294.64 90.8594C294.205 91.0384 293.703 91.1278 293.135 91.1278C292.269 91.1278 291.578 90.9474 291.064 90.5866C290.553 90.223 290.253 89.7287 290.165 89.1037L291.951 89.0099C292.005 89.2741 292.135 89.4759 292.343 89.6151C292.55 89.7514 292.816 89.8196 293.14 89.8196C293.458 89.8196 293.713 89.7585 293.907 89.6364C294.103 89.5114 294.202 89.3509 294.205 89.1548C294.202 88.9901 294.132 88.8551 293.996 88.75C293.86 88.642 293.65 88.5597 293.365 88.5028L292.232 88.277C291.593 88.1491 291.117 87.9276 290.804 87.6122C290.495 87.2969 290.34 86.8949 290.34 86.4062C290.34 85.9858 290.453 85.6236 290.681 85.3196C290.911 85.0156 291.233 84.7812 291.648 84.6165C292.066 84.4517 292.554 84.3693 293.114 84.3693C293.941 84.3693 294.591 84.544 295.066 84.8935C295.543 85.2429 295.821 85.7187 295.901 86.321ZM221.787 102.114L216.298 104.909V103.818L220.508 101.79L220.474 101.858V101.688L220.508 101.756L216.298 99.7273V98.6364L221.787 101.432V102.114ZM226.475 107.091V96.1818H227.174V107.091H226.475ZM228.828 99.4545C228.776 99.0227 228.569 98.6875 228.205 98.4489C227.842 98.2102 227.396 98.0909 226.867 98.0909C226.481 98.0909 226.143 98.1534 225.853 98.2784C225.566 98.4034 225.342 98.5753 225.18 98.794C225.021 99.0128 224.941 99.2614 224.941 99.5398C224.941 99.7727 224.997 99.973 225.107 100.141C225.221 100.305 225.366 100.443 225.542 100.554C225.718 100.662 225.903 100.751 226.096 100.822C226.289 100.891 226.467 100.946 226.629 100.989L227.515 101.227C227.742 101.287 227.995 101.369 228.274 101.474C228.555 101.58 228.823 101.723 229.079 101.905C229.338 102.084 229.551 102.314 229.718 102.595C229.886 102.876 229.97 103.222 229.97 103.631C229.97 104.102 229.846 104.528 229.599 104.909C229.355 105.29 228.997 105.592 228.525 105.817C228.056 106.041 227.487 106.153 226.816 106.153C226.191 106.153 225.65 106.053 225.193 105.851C224.738 105.649 224.38 105.368 224.119 105.007C223.86 104.646 223.714 104.227 223.68 103.75H224.771C224.799 104.08 224.91 104.352 225.103 104.568C225.299 104.781 225.546 104.94 225.845 105.045C226.146 105.148 226.47 105.199 226.816 105.199C227.22 105.199 227.582 105.134 227.903 105.003C228.224 104.869 228.478 104.685 228.666 104.449C228.853 104.21 228.947 103.932 228.947 103.614C228.947 103.324 228.866 103.088 228.704 102.906C228.542 102.724 228.329 102.577 228.065 102.463C227.801 102.349 227.515 102.25 227.208 102.165L226.134 101.858C225.453 101.662 224.913 101.382 224.515 101.018C224.117 100.655 223.919 100.179 223.919 99.5909C223.919 99.1023 224.051 98.6761 224.315 98.3125C224.582 97.946 224.94 97.6619 225.389 97.4602C225.84 97.2557 226.345 97.1534 226.901 97.1534C227.464 97.1534 227.964 97.2543 228.401 97.456C228.839 97.6548 229.186 97.9276 229.441 98.2741C229.7 98.6207 229.836 99.0142 229.85 99.4545H228.828ZM234.281 106.119C233.781 106.119 233.331 106.02 232.93 105.821C232.53 105.622 232.209 105.349 231.967 105.003C231.726 104.656 231.594 104.261 231.571 103.818H232.594C232.633 104.213 232.812 104.54 233.131 104.798C233.452 105.054 233.835 105.182 234.281 105.182C234.639 105.182 234.957 105.098 235.236 104.93C235.517 104.763 235.737 104.533 235.896 104.24C236.058 103.945 236.139 103.611 236.139 103.239C236.139 102.858 236.055 102.518 235.888 102.22C235.723 101.919 235.496 101.682 235.206 101.509C234.916 101.335 234.585 101.247 234.213 101.244C233.946 101.241 233.672 101.283 233.39 101.368C233.109 101.45 232.878 101.557 232.696 101.688L231.707 101.568L232.236 97.2727H236.77V98.2102H233.122L232.815 100.784H232.866C233.045 100.642 233.27 100.524 233.54 100.43C233.809 100.337 234.091 100.29 234.383 100.29C234.917 100.29 235.393 100.418 235.811 100.673C236.231 100.926 236.561 101.273 236.8 101.713C237.041 102.153 237.162 102.656 237.162 103.222C237.162 103.778 237.037 104.276 236.787 104.713C236.54 105.148 236.199 105.491 235.764 105.744C235.329 105.994 234.835 106.119 234.281 106.119ZM241.701 106.119C241.059 106.119 240.512 105.945 240.061 105.595C239.609 105.243 239.264 104.733 239.025 104.065C238.786 103.395 238.667 102.585 238.667 101.636C238.667 100.693 238.786 99.8878 239.025 99.2202C239.267 98.5497 239.613 98.0384 240.065 97.6861C240.519 97.331 241.065 97.1534 241.701 97.1534C242.338 97.1534 242.882 97.331 243.333 97.6861C243.788 98.0384 244.134 98.5497 244.373 99.2202C244.615 99.8878 244.735 100.693 244.735 101.636C244.735 102.585 244.616 103.395 244.377 104.065C244.139 104.733 243.794 105.243 243.342 105.595C242.89 105.945 242.343 106.119 241.701 106.119ZM241.701 105.182C242.338 105.182 242.832 104.875 243.184 104.261C243.536 103.648 243.713 102.773 243.713 101.636C243.713 100.881 243.632 100.237 243.47 99.706C243.311 99.1747 243.08 98.7699 242.779 98.4915C242.481 98.2131 242.122 98.0739 241.701 98.0739C241.07 98.0739 240.578 98.3849 240.222 99.0071C239.867 99.6264 239.69 100.503 239.69 101.636C239.69 102.392 239.769 103.034 239.928 103.562C240.088 104.091 240.316 104.493 240.615 104.768C240.916 105.044 241.278 105.182 241.701 105.182ZM249.201 106.119C248.559 106.119 248.012 105.945 247.561 105.595C247.109 105.243 246.764 104.733 246.525 104.065C246.286 103.395 246.167 102.585 246.167 101.636C246.167 100.693 246.286 99.8878 246.525 99.2202C246.767 98.5497 247.113 98.0384 247.565 97.6861C248.019 97.331 248.565 97.1534 249.201 97.1534C249.838 97.1534 250.382 97.331 250.833 97.6861C251.288 98.0384 251.634 98.5497 251.873 99.2202C252.115 99.8878 252.235 100.693 252.235 101.636C252.235 102.585 252.116 103.395 251.877 104.065C251.639 104.733 251.294 105.243 250.842 105.595C250.39 105.945 249.843 106.119 249.201 106.119ZM249.201 105.182C249.838 105.182 250.332 104.875 250.684 104.261C251.036 103.648 251.213 102.773 251.213 101.636C251.213 100.881 251.132 100.237 250.97 99.706C250.811 99.1747 250.58 98.7699 250.279 98.4915C249.981 98.2131 249.622 98.0739 249.201 98.0739C248.57 98.0739 248.078 98.3849 247.722 99.0071C247.367 99.6264 247.19 100.503 247.19 101.636C247.19 102.392 247.269 103.034 247.428 103.562C247.588 104.091 247.816 104.493 248.115 104.768C248.416 105.044 248.778 105.182 249.201 105.182ZM253.872 106V99.4545H254.843V100.477H254.928C255.065 100.128 255.285 99.8565 255.589 99.6634C255.893 99.4673 256.258 99.3693 256.684 99.3693C257.116 99.3693 257.475 99.4673 257.762 99.6634C258.052 99.8565 258.278 100.128 258.44 100.477H258.508C258.676 100.139 258.927 99.8707 259.262 99.6719C259.597 99.4702 259.999 99.3693 260.468 99.3693C261.053 99.3693 261.532 99.5526 261.904 99.919C262.276 100.283 262.463 100.849 262.463 101.619V106H261.457V101.619C261.457 101.136 261.325 100.791 261.061 100.584C260.796 100.376 260.485 100.273 260.127 100.273C259.667 100.273 259.311 100.412 259.058 100.69C258.805 100.966 258.678 101.315 258.678 101.739V106H257.656V101.517C257.656 101.145 257.535 100.845 257.294 100.618C257.052 100.388 256.741 100.273 256.36 100.273C256.099 100.273 255.855 100.342 255.627 100.482C255.403 100.621 255.221 100.814 255.082 101.061C254.945 101.305 254.877 101.588 254.877 101.909V106H253.872ZM264.301 106V99.4545H265.273V100.477H265.358C265.494 100.128 265.715 99.8565 266.019 99.6634C266.323 99.4673 266.688 99.3693 267.114 99.3693C267.546 99.3693 267.905 99.4673 268.192 99.6634C268.482 99.8565 268.708 100.128 268.869 100.477H268.938C269.105 100.139 269.357 99.8707 269.692 99.6719C270.027 99.4702 270.429 99.3693 270.898 99.3693C271.483 99.3693 271.962 99.5526 272.334 99.919C272.706 100.283 272.892 100.849 272.892 101.619V106H271.887V101.619C271.887 101.136 271.754 100.791 271.49 100.584C271.226 100.376 270.915 100.273 270.557 100.273C270.097 100.273 269.74 100.412 269.487 100.69C269.235 100.966 269.108 101.315 269.108 101.739V106H268.085V101.517C268.085 101.145 267.965 100.845 267.723 100.618C267.482 100.388 267.171 100.273 266.79 100.273C266.529 100.273 266.284 100.342 266.057 100.482C265.833 100.621 265.651 100.814 265.512 101.061C265.375 101.305 265.307 101.588 265.307 101.909V106H264.301ZM278.106 106V99.4545H279.078V100.477H279.163C279.299 100.128 279.519 99.8565 279.823 99.6634C280.127 99.4673 280.492 99.3693 280.919 99.3693C281.35 99.3693 281.71 99.4673 281.997 99.6634C282.286 99.8565 282.512 100.128 282.674 100.477H282.742C282.91 100.139 283.161 99.8707 283.497 99.6719C283.832 99.4702 284.234 99.3693 284.703 99.3693C285.288 99.3693 285.767 99.5526 286.139 99.919C286.511 100.283 286.697 100.849 286.697 101.619V106H285.691V101.619C285.691 101.136 285.559 100.791 285.295 100.584C285.031 100.376 284.72 100.273 284.362 100.273C283.901 100.273 283.545 100.412 283.292 100.69C283.039 100.966 282.913 101.315 282.913 101.739V106H281.89V101.517C281.89 101.145 281.769 100.845 281.528 100.618C281.286 100.388 280.975 100.273 280.595 100.273C280.333 100.273 280.089 100.342 279.862 100.482C279.637 100.621 279.455 100.814 279.316 101.061C279.18 101.305 279.112 101.588 279.112 101.909V106H278.106ZM292.286 101.79V102.727H288.468V101.79H292.286ZM296.714 106.136C296.101 106.136 295.572 105.991 295.129 105.702C294.686 105.412 294.345 105.013 294.106 104.504C293.868 103.996 293.748 103.415 293.748 102.761C293.748 102.097 293.871 101.51 294.115 101.001C294.362 100.49 294.706 100.091 295.146 99.804C295.589 99.5142 296.106 99.3693 296.697 99.3693C297.157 99.3693 297.572 99.4545 297.942 99.625C298.311 99.7955 298.613 100.034 298.849 100.341C299.085 100.648 299.231 101.006 299.288 101.415H298.282C298.206 101.116 298.035 100.852 297.771 100.622C297.51 100.389 297.157 100.273 296.714 100.273C296.322 100.273 295.979 100.375 295.683 100.58C295.39 100.781 295.162 101.067 294.997 101.436C294.835 101.803 294.754 102.233 294.754 102.727C294.754 103.233 294.834 103.673 294.993 104.048C295.155 104.423 295.382 104.714 295.675 104.922C295.97 105.129 296.317 105.233 296.714 105.233C296.976 105.233 297.213 105.188 297.426 105.097C297.639 105.006 297.819 104.875 297.967 104.705C298.115 104.534 298.22 104.33 298.282 104.091H299.288C299.231 104.477 299.091 104.825 298.866 105.135C298.645 105.442 298.351 105.686 297.984 105.868C297.621 106.047 297.197 106.136 296.714 106.136ZM302.684 106.153C302.27 106.153 301.893 106.075 301.555 105.919C301.217 105.76 300.949 105.531 300.75 105.233C300.551 104.932 300.452 104.568 300.452 104.142C300.452 103.767 300.525 103.463 300.673 103.23C300.821 102.994 301.018 102.81 301.265 102.676C301.513 102.543 301.785 102.443 302.084 102.378C302.385 102.31 302.687 102.256 302.991 102.216C303.389 102.165 303.711 102.126 303.959 102.101C304.209 102.072 304.39 102.026 304.504 101.96C304.621 101.895 304.679 101.781 304.679 101.619V101.585C304.679 101.165 304.564 100.838 304.334 100.605C304.106 100.372 303.761 100.256 303.298 100.256C302.818 100.256 302.442 100.361 302.169 100.571C301.896 100.781 301.704 101.006 301.594 101.244L300.639 100.903C300.809 100.506 301.037 100.196 301.321 99.9744C301.608 99.75 301.92 99.5937 302.258 99.5057C302.599 99.4148 302.934 99.3693 303.264 99.3693C303.474 99.3693 303.716 99.3949 303.988 99.446C304.264 99.4943 304.53 99.5952 304.785 99.7486C305.044 99.902 305.258 100.134 305.429 100.443C305.599 100.753 305.684 101.168 305.684 101.688V106H304.679V105.114H304.628C304.559 105.256 304.446 105.408 304.287 105.57C304.128 105.732 303.916 105.869 303.652 105.983C303.388 106.097 303.065 106.153 302.684 106.153ZM302.838 105.25C303.236 105.25 303.571 105.172 303.844 105.016C304.119 104.859 304.327 104.658 304.466 104.411C304.608 104.163 304.679 103.903 304.679 103.631V102.71C304.636 102.761 304.542 102.808 304.398 102.851C304.256 102.891 304.091 102.926 303.903 102.957C303.719 102.986 303.538 103.011 303.362 103.034C303.189 103.054 303.048 103.071 302.94 103.085C302.679 103.119 302.434 103.175 302.207 103.251C301.983 103.325 301.801 103.437 301.662 103.588C301.525 103.736 301.457 103.937 301.457 104.193C301.457 104.543 301.586 104.807 301.845 104.986C302.106 105.162 302.437 105.25 302.838 105.25ZM307.52 108.455V99.4545H308.492V100.494H308.611C308.685 100.381 308.787 100.236 308.918 100.06C309.051 99.8807 309.242 99.7216 309.489 99.5824C309.739 99.4403 310.077 99.3693 310.503 99.3693C311.054 99.3693 311.54 99.5071 311.96 99.7827C312.381 100.058 312.709 100.449 312.945 100.955C313.181 101.46 313.298 102.057 313.298 102.744C313.298 103.438 313.181 104.038 312.945 104.547C312.709 105.053 312.382 105.445 311.965 105.723C311.547 105.999 311.066 106.136 310.52 106.136C310.1 106.136 309.763 106.067 309.51 105.928C309.257 105.786 309.063 105.625 308.926 105.446C308.79 105.264 308.685 105.114 308.611 104.994H308.526V108.455H307.52ZM308.509 102.727C308.509 103.222 308.581 103.658 308.726 104.036C308.871 104.411 309.083 104.705 309.361 104.918C309.639 105.128 309.98 105.233 310.384 105.233C310.804 105.233 311.155 105.122 311.436 104.901C311.72 104.676 311.933 104.375 312.075 103.997C312.22 103.616 312.293 103.193 312.293 102.727C312.293 102.267 312.222 101.852 312.08 101.483C311.941 101.111 311.729 100.817 311.445 100.601C311.164 100.382 310.81 100.273 310.384 100.273C309.975 100.273 309.631 100.376 309.352 100.584C309.074 100.788 308.864 101.075 308.722 101.445C308.58 101.811 308.509 102.239 308.509 102.727Z" fill="#122545"/>
<path d="M369.526 87.7912C369.509 87.2543 369.574 86.7997 369.722 86.4276C369.869 86.0554 370.084 85.7727 370.365 85.5795C370.649 85.3864 370.983 85.2898 371.366 85.2898C371.634 85.2898 371.889 85.3452 372.134 85.456C372.378 85.5668 372.655 85.7585 372.964 86.0312C373.129 86.1761 373.268 86.2869 373.382 86.3636C373.496 86.4375 373.626 86.4744 373.774 86.4744C373.976 86.4744 374.142 86.3963 374.273 86.2401C374.403 86.081 374.464 85.8295 374.456 85.4858H375.845C375.865 86.0256 375.8 86.4815 375.649 86.8537C375.499 87.2259 375.281 87.5085 374.997 87.7017C374.713 87.8949 374.382 87.9915 374.004 87.9915C373.723 87.9915 373.459 87.9332 373.212 87.8168C372.967 87.6974 372.696 87.5071 372.398 87.2457C372.222 87.0895 372.081 86.9773 371.976 86.9091C371.871 86.8381 371.746 86.8026 371.601 86.8026C371.399 86.8026 371.233 86.8793 371.102 87.0327C370.972 87.1832 370.911 87.4361 370.919 87.7912H369.526ZM377.467 91L381.085 83.8409V83.7812H376.87V82.2727H382.994V83.8026L379.371 91H377.467ZM388.055 82.2727V91H386.21V84.0241H386.159L384.16 85.277V83.6406L386.321 82.2727H388.055ZM393.355 91.1193C392.719 91.1193 392.152 91.0099 391.655 90.7912C391.161 90.5696 390.77 90.2656 390.483 89.8793C390.199 89.4901 390.053 89.0412 390.044 88.5327H391.902C391.913 88.7457 391.983 88.9332 392.111 89.0952C392.241 89.2543 392.415 89.3778 392.631 89.4659C392.847 89.554 393.089 89.598 393.359 89.598C393.641 89.598 393.889 89.5483 394.105 89.4489C394.321 89.3494 394.49 89.2116 394.612 89.0355C394.734 88.8594 394.795 88.6562 394.795 88.4261C394.795 88.1932 394.73 87.9872 394.599 87.8082C394.472 87.6264 394.287 87.4844 394.045 87.3821C393.807 87.2798 393.523 87.2287 393.193 87.2287H392.379V85.8736H393.193C393.472 85.8736 393.717 85.8253 393.93 85.7287C394.146 85.6321 394.314 85.4986 394.433 85.3281C394.553 85.1548 394.612 84.9531 394.612 84.723C394.612 84.5043 394.56 84.3125 394.455 84.1477C394.352 83.9801 394.207 83.8494 394.02 83.7557C393.835 83.6619 393.619 83.6151 393.372 83.6151C393.122 83.6151 392.893 83.6605 392.686 83.7514C392.479 83.8395 392.312 83.9659 392.188 84.1307C392.062 84.2955 391.996 84.4886 391.987 84.7102H390.219C390.227 84.2074 390.371 83.7642 390.649 83.3807C390.928 82.9972 391.303 82.6974 391.774 82.4815C392.249 82.2628 392.784 82.1534 393.381 82.1534C393.983 82.1534 394.51 82.2628 394.962 82.4815C395.413 82.7003 395.764 82.9957 396.014 83.3679C396.267 83.7372 396.392 84.152 396.389 84.6122C396.392 85.1009 396.24 85.5085 395.933 85.8352C395.629 86.1619 395.233 86.3693 394.744 86.4574V86.5256C395.386 86.608 395.875 86.831 396.21 87.1946C396.548 87.5554 396.716 88.0071 396.713 88.5497C396.716 89.0469 396.572 89.4886 396.283 89.875C395.996 90.2614 395.599 90.5653 395.094 90.7869C394.588 91.0085 394.009 91.1193 393.355 91.1193ZM402.649 87.2159V91H400.834V84.4545H402.564V85.6094H402.641C402.786 85.2287 403.028 84.9276 403.369 84.706C403.71 84.4815 404.124 84.3693 404.609 84.3693C405.064 84.3693 405.46 84.4688 405.798 84.6676C406.136 84.8665 406.399 85.1506 406.587 85.5199C406.774 85.8864 406.868 86.3239 406.868 86.8324V91H405.053V87.1562C405.055 86.7557 404.953 86.4432 404.746 86.2188C404.538 85.9915 404.253 85.8778 403.889 85.8778C403.645 85.8778 403.429 85.9304 403.241 86.0355C403.057 86.1406 402.912 86.294 402.807 86.4957C402.705 86.6946 402.652 86.9347 402.649 87.2159ZM410.165 91.1236C409.748 91.1236 409.375 91.0511 409.049 90.9062C408.722 90.7585 408.463 90.5412 408.273 90.2543C408.086 89.9645 407.992 89.6037 407.992 89.1719C407.992 88.8082 408.059 88.5028 408.192 88.2557C408.326 88.0085 408.507 87.8097 408.738 87.6591C408.968 87.5085 409.229 87.3949 409.522 87.3182C409.817 87.2415 410.127 87.1875 410.451 87.1562C410.831 87.1165 411.138 87.0795 411.371 87.0455C411.604 87.0085 411.773 86.9545 411.878 86.8835C411.983 86.8125 412.036 86.7074 412.036 86.5682V86.5426C412.036 86.2727 411.951 86.0639 411.78 85.9162C411.613 85.7685 411.374 85.6946 411.064 85.6946C410.738 85.6946 410.478 85.767 410.284 85.9119C410.091 86.054 409.963 86.233 409.901 86.4489L408.222 86.3125C408.307 85.9148 408.475 85.571 408.725 85.2812C408.975 84.9886 409.297 84.7642 409.692 84.608C410.09 84.4489 410.55 84.3693 411.073 84.3693C411.436 84.3693 411.784 84.4119 412.117 84.4972C412.452 84.5824 412.749 84.7145 413.007 84.8935C413.269 85.0724 413.475 85.3026 413.625 85.5838C413.776 85.8622 413.851 86.196 413.851 86.5852V91H412.13V90.0923H412.078C411.973 90.2969 411.833 90.4773 411.657 90.6335C411.48 90.7869 411.269 90.9077 411.022 90.9957C410.775 91.081 410.489 91.1236 410.165 91.1236ZM410.685 89.8707C410.952 89.8707 411.188 89.8182 411.392 89.7131C411.597 89.6051 411.757 89.4602 411.874 89.2784C411.99 89.0966 412.049 88.8906 412.049 88.6605V87.9659C411.992 88.0028 411.914 88.0369 411.814 88.0682C411.718 88.0966 411.608 88.1236 411.486 88.1491C411.364 88.1719 411.242 88.1932 411.12 88.2131C410.998 88.2301 410.887 88.2457 410.787 88.2599C410.574 88.2912 410.388 88.3409 410.229 88.4091C410.07 88.4773 409.946 88.5696 409.858 88.6861C409.77 88.7997 409.726 88.9418 409.726 89.1122C409.726 89.3594 409.816 89.5483 409.995 89.679C410.176 89.8068 410.407 89.8707 410.685 89.8707ZM415.26 91V84.4545H416.99V85.6094H417.066C417.203 85.2259 417.43 84.9233 417.748 84.7017C418.066 84.4801 418.447 84.3693 418.89 84.3693C419.339 84.3693 419.721 84.4815 420.037 84.706C420.352 84.9276 420.562 85.2287 420.667 85.6094H420.735C420.869 85.2344 421.11 84.9347 421.46 84.7102C421.812 84.483 422.228 84.3693 422.708 84.3693C423.319 84.3693 423.815 84.5639 424.196 84.9531C424.579 85.3395 424.771 85.8878 424.771 86.598V91H422.96V86.956C422.96 86.5923 422.863 86.3196 422.67 86.1378C422.477 85.956 422.235 85.8651 421.946 85.8651C421.616 85.8651 421.359 85.9702 421.174 86.1804C420.99 86.3878 420.897 86.6619 420.897 87.0028V91H419.137V86.9176C419.137 86.5966 419.045 86.3409 418.86 86.1506C418.679 85.9602 418.439 85.8651 418.14 85.8651C417.939 85.8651 417.757 85.9162 417.595 86.0185C417.436 86.1179 417.309 86.2585 417.216 86.4403C417.122 86.6193 417.075 86.8295 417.075 87.071V91H415.26ZM429.188 91.1278C428.515 91.1278 427.935 90.9915 427.449 90.7188C426.966 90.4432 426.594 90.054 426.333 89.5511C426.071 89.0455 425.941 88.4474 425.941 87.7571C425.941 87.0838 426.071 86.4929 426.333 85.9844C426.594 85.4759 426.962 85.0795 427.436 84.7955C427.914 84.5114 428.473 84.3693 429.115 84.3693C429.547 84.3693 429.949 84.4389 430.321 84.5781C430.696 84.7145 431.023 84.9205 431.301 85.196C431.583 85.4716 431.801 85.8182 431.958 86.2358C432.114 86.6506 432.192 87.1364 432.192 87.6932V88.1918H426.665V87.0668H430.483C430.483 86.8054 430.426 86.5739 430.313 86.3722C430.199 86.1705 430.042 86.0128 429.84 85.8991C429.641 85.7827 429.409 85.7244 429.145 85.7244C428.87 85.7244 428.625 85.7884 428.412 85.9162C428.202 86.0412 428.037 86.2102 427.918 86.4233C427.799 86.6335 427.738 86.8679 427.735 87.1264V88.196C427.735 88.5199 427.794 88.7997 427.914 89.0355C428.036 89.2713 428.208 89.4531 428.429 89.581C428.651 89.7088 428.914 89.7727 429.218 89.7727C429.419 89.7727 429.604 89.7443 429.772 89.6875C429.939 89.6307 430.083 89.5455 430.202 89.4318C430.321 89.3182 430.412 89.179 430.475 89.0142L432.154 89.125C432.069 89.5284 431.894 89.8807 431.63 90.1818C431.368 90.4801 431.03 90.7131 430.615 90.8807C430.203 91.0455 429.728 91.1278 429.188 91.1278ZM438.823 86.321L437.161 86.4233C437.132 86.2812 437.071 86.1534 436.978 86.0398C436.884 85.9233 436.76 85.831 436.607 85.7628C436.456 85.6918 436.276 85.6562 436.066 85.6562C435.784 85.6562 435.547 85.7159 435.354 85.8352C435.161 85.9517 435.064 86.108 435.064 86.304C435.064 86.4602 435.127 86.5923 435.252 86.7003C435.377 86.8082 435.591 86.8949 435.895 86.9602L437.08 87.1989C437.716 87.3295 438.191 87.5398 438.503 87.8295C438.816 88.1193 438.972 88.5 438.972 88.9716C438.972 89.4006 438.846 89.777 438.593 90.1009C438.343 90.4247 437.999 90.6776 437.561 90.8594C437.127 91.0384 436.625 91.1278 436.057 91.1278C435.191 91.1278 434.5 90.9474 433.986 90.5866C433.475 90.223 433.175 89.7287 433.087 89.1037L434.873 89.0099C434.926 89.2741 435.057 89.4759 435.265 89.6151C435.472 89.7514 435.738 89.8196 436.061 89.8196C436.38 89.8196 436.635 89.7585 436.828 89.6364C437.025 89.5114 437.124 89.3509 437.127 89.1548C437.124 88.9901 437.054 88.8551 436.918 88.75C436.782 88.642 436.571 88.5597 436.287 88.5028L435.154 88.277C434.515 88.1491 434.039 87.9276 433.726 87.6122C433.417 87.2969 433.262 86.8949 433.262 86.4062C433.262 85.9858 433.375 85.6236 433.603 85.3196C433.833 85.0156 434.155 84.7812 434.57 84.6165C434.988 84.4517 435.476 84.3693 436.036 84.3693C436.863 84.3693 437.513 84.544 437.988 84.8935C438.465 85.2429 438.743 85.7187 438.823 86.321ZM371.922 102.114L366.433 104.909V103.818L370.643 101.79L370.609 101.858V101.688L370.643 101.756L366.433 99.7273V98.6364L371.922 101.432V102.114ZM376.61 107.091V96.1818H377.309V107.091H376.61ZM378.962 99.4545C378.911 99.0227 378.704 98.6875 378.34 98.4489C377.977 98.2102 377.531 98.0909 377.002 98.0909C376.616 98.0909 376.278 98.1534 375.988 98.2784C375.701 98.4034 375.477 98.5753 375.315 98.794C375.156 99.0128 375.076 99.2614 375.076 99.5398C375.076 99.7727 375.131 99.973 375.242 100.141C375.356 100.305 375.501 100.443 375.677 100.554C375.853 100.662 376.038 100.751 376.231 100.822C376.424 100.891 376.602 100.946 376.763 100.989L377.65 101.227C377.877 101.287 378.13 101.369 378.408 101.474C378.69 101.58 378.958 101.723 379.214 101.905C379.472 102.084 379.685 102.314 379.853 102.595C380.021 102.876 380.104 103.222 380.104 103.631C380.104 104.102 379.981 104.528 379.734 104.909C379.489 105.29 379.131 105.592 378.66 105.817C378.191 106.041 377.621 106.153 376.951 106.153C376.326 106.153 375.785 106.053 375.327 105.851C374.873 105.649 374.515 105.368 374.254 105.007C373.995 104.646 373.849 104.227 373.815 103.75H374.906C374.934 104.08 375.045 104.352 375.238 104.568C375.434 104.781 375.681 104.94 375.979 105.045C376.281 105.148 376.604 105.199 376.951 105.199C377.354 105.199 377.717 105.134 378.038 105.003C378.359 104.869 378.613 104.685 378.8 104.449C378.988 104.21 379.082 103.932 379.082 103.614C379.082 103.324 379.001 103.088 378.839 102.906C378.677 102.724 378.464 102.577 378.2 102.463C377.935 102.349 377.65 102.25 377.343 102.165L376.269 101.858C375.587 101.662 375.048 101.382 374.65 101.018C374.252 100.655 374.053 100.179 374.053 99.5909C374.053 99.1023 374.185 98.6761 374.45 98.3125C374.717 97.946 375.075 97.6619 375.523 97.4602C375.975 97.2557 376.479 97.1534 377.036 97.1534C377.599 97.1534 378.099 97.2543 378.536 97.456C378.974 97.6548 379.32 97.9276 379.576 98.2741C379.835 98.6207 379.971 99.0142 379.985 99.4545H378.962ZM384.757 97.2727V106H383.7V98.3807H383.649L381.518 99.7955V98.7216L383.7 97.2727H384.757ZM387.284 106V99.4545H388.255V100.477H388.341C388.477 100.128 388.697 99.8565 389.001 99.6634C389.305 99.4673 389.67 99.3693 390.096 99.3693C390.528 99.3693 390.887 99.4673 391.174 99.6634C391.464 99.8565 391.69 100.128 391.852 100.477H391.92C392.088 100.139 392.339 99.8707 392.674 99.6719C393.01 99.4702 393.412 99.3693 393.88 99.3693C394.466 99.3693 394.944 99.5526 395.316 99.919C395.689 100.283 395.875 100.849 395.875 101.619V106H394.869V101.619C394.869 101.136 394.737 100.791 394.473 100.584C394.208 100.376 393.897 100.273 393.539 100.273C393.079 100.273 392.723 100.412 392.47 100.69C392.217 100.966 392.091 101.315 392.091 101.739V106H391.068V101.517C391.068 101.145 390.947 100.845 390.706 100.618C390.464 100.388 390.153 100.273 389.772 100.273C389.511 100.273 389.267 100.342 389.039 100.482C388.815 100.621 388.633 100.814 388.494 101.061C388.358 101.305 388.289 101.588 388.289 101.909V106H387.284ZM397.713 106V99.4545H398.685V100.477H398.77C398.907 100.128 399.127 99.8565 399.431 99.6634C399.735 99.4673 400.1 99.3693 400.526 99.3693C400.958 99.3693 401.317 99.4673 401.604 99.6634C401.894 99.8565 402.12 100.128 402.282 100.477H402.35C402.517 100.139 402.769 99.8707 403.104 99.6719C403.439 99.4702 403.841 99.3693 404.31 99.3693C404.895 99.3693 405.374 99.5526 405.746 99.919C406.118 100.283 406.304 100.849 406.304 101.619V106H405.299V101.619C405.299 101.136 405.167 100.791 404.902 100.584C404.638 100.376 404.327 100.273 403.969 100.273C403.509 100.273 403.152 100.412 402.9 100.69C402.647 100.966 402.52 101.315 402.52 101.739V106H401.498V101.517C401.498 101.145 401.377 100.845 401.135 100.618C400.894 100.388 400.583 100.273 400.202 100.273C399.941 100.273 399.696 100.342 399.469 100.482C399.245 100.621 399.063 100.814 398.924 101.061C398.787 101.305 398.719 101.588 398.719 101.909V106H397.713ZM412.012 106H410.904L414.109 97.2727H415.2L418.404 106H417.297L414.689 98.6534H414.62L412.012 106ZM412.422 102.591H416.887V103.528H412.422V102.591ZM422.457 106H419.764V97.2727H422.576C423.423 97.2727 424.147 97.4474 424.75 97.7969C425.352 98.1435 425.814 98.642 426.135 99.2926C426.456 99.9403 426.616 100.716 426.616 101.619C426.616 102.528 426.454 103.311 426.13 103.967C425.806 104.621 425.335 105.124 424.716 105.476C424.096 105.825 423.343 106 422.457 106ZM420.821 105.062H422.389C423.11 105.062 423.708 104.923 424.183 104.645C424.657 104.366 425.011 103.97 425.244 103.456C425.477 102.942 425.593 102.33 425.593 101.619C425.593 100.915 425.478 100.308 425.248 99.7997C425.018 99.2884 424.674 98.8963 424.217 98.6236C423.76 98.348 423.19 98.2102 422.508 98.2102H420.821V105.062ZM427.548 98.2102V97.2727H434.094V98.2102H431.349V106H430.293V98.2102H427.548ZM436.083 97.2727L438.674 104.619H438.776L441.367 97.2727H442.475L439.27 106H438.179L434.975 97.2727H436.083Z" fill="#122545"/>
<path d="M493.481 87.7912C493.464 87.2543 493.529 86.7997 493.677 86.4276C493.824 86.0554 494.039 85.7727 494.32 85.5795C494.604 85.3864 494.938 85.2898 495.322 85.2898C495.589 85.2898 495.844 85.3452 496.089 85.456C496.333 85.5668 496.61 85.7585 496.92 86.0312C497.084 86.1761 497.224 86.2869 497.337 86.3636C497.451 86.4375 497.581 86.4744 497.729 86.4744C497.931 86.4744 498.097 86.3963 498.228 86.2401C498.358 86.081 498.42 85.8295 498.411 85.4858H499.8C499.82 86.0256 499.755 86.4815 499.604 86.8537C499.454 87.2259 499.236 87.5085 498.952 87.7017C498.668 87.8949 498.337 87.9915 497.959 87.9915C497.678 87.9915 497.414 87.9332 497.167 87.8168C496.922 87.6974 496.651 87.5071 496.353 87.2457C496.177 87.0895 496.036 86.9773 495.931 86.9091C495.826 86.8381 495.701 86.8026 495.556 86.8026C495.354 86.8026 495.188 86.8793 495.057 87.0327C494.927 87.1832 494.866 87.4361 494.874 87.7912H493.481ZM501.296 89.4659V88.0128L504.939 82.2727H506.192V84.2841H505.451L503.154 87.919V87.9872H508.331V89.4659H501.296ZM505.485 91V89.0227L505.519 88.3793V82.2727H507.249V91H505.485ZM512.983 91.1918C512.25 91.1889 511.619 91.0085 511.091 90.6506C510.565 90.2926 510.16 89.7741 509.876 89.0952C509.595 88.4162 509.456 87.5994 509.459 86.6449C509.459 85.6932 509.599 84.8821 509.881 84.2116C510.165 83.5412 510.569 83.0312 511.095 82.6818C511.623 82.3295 512.253 82.1534 512.983 82.1534C513.713 82.1534 514.341 82.3295 514.866 82.6818C515.395 83.0341 515.801 83.5455 516.085 84.2159C516.369 84.8835 516.51 85.6932 516.507 86.6449C516.507 87.6023 516.365 88.4205 516.081 89.0994C515.8 89.7784 515.396 90.2969 514.871 90.6548C514.345 91.0128 513.716 91.1918 512.983 91.1918ZM512.983 89.6619C513.483 89.6619 513.882 89.4105 514.18 88.9077C514.479 88.4048 514.626 87.6506 514.623 86.6449C514.623 85.983 514.555 85.4318 514.419 84.9915C514.285 84.5511 514.095 84.2202 513.848 83.9986C513.604 83.777 513.315 83.6662 512.983 83.6662C512.486 83.6662 512.088 83.9148 511.79 84.4119C511.491 84.9091 511.341 85.6534 511.338 86.6449C511.338 87.3153 511.405 87.875 511.538 88.3239C511.675 88.7699 511.866 89.1051 512.113 89.3295C512.361 89.5511 512.65 89.6619 512.983 89.6619ZM521.244 91.1918C520.512 91.1889 519.881 91.0085 519.352 90.6506C518.827 90.2926 518.422 89.7741 518.138 89.0952C517.857 88.4162 517.718 87.5994 517.72 86.6449C517.72 85.6932 517.861 84.8821 518.142 84.2116C518.426 83.5412 518.831 83.0312 519.357 82.6818C519.885 82.3295 520.514 82.1534 521.244 82.1534C521.975 82.1534 522.602 82.3295 523.128 82.6818C523.656 83.0341 524.063 83.5455 524.347 84.2159C524.631 84.8835 524.771 85.6932 524.769 86.6449C524.769 87.6023 524.627 88.4205 524.343 89.0994C524.061 89.7784 523.658 90.2969 523.132 90.6548C522.607 91.0128 521.977 91.1918 521.244 91.1918ZM521.244 89.6619C521.744 89.6619 522.144 89.4105 522.442 88.9077C522.74 88.4048 522.888 87.6506 522.885 86.6449C522.885 85.983 522.817 85.4318 522.681 84.9915C522.547 84.5511 522.357 84.2202 522.11 83.9986C521.865 83.777 521.577 83.6662 521.244 83.6662C520.747 83.6662 520.35 83.9148 520.051 84.4119C519.753 84.9091 519.602 85.6534 519.6 86.6449C519.6 87.3153 519.666 87.875 519.8 88.3239C519.936 88.7699 520.128 89.1051 520.375 89.3295C520.622 89.5511 520.912 89.6619 521.244 89.6619ZM530.694 87.2159V91H528.879V84.4545H530.609V85.6094H530.686C530.83 85.2287 531.073 84.9276 531.414 84.706C531.755 84.4815 532.169 84.3693 532.654 84.3693C533.109 84.3693 533.505 84.4688 533.843 84.6676C534.181 84.8665 534.444 85.1506 534.632 85.5199C534.819 85.8864 534.913 86.3239 534.913 86.8324V91H533.097V87.1562C533.1 86.7557 532.998 86.4432 532.791 86.2188C532.583 85.9915 532.298 85.8778 531.934 85.8778C531.69 85.8778 531.474 85.9304 531.286 86.0355C531.102 86.1406 530.957 86.294 530.852 86.4957C530.749 86.6946 530.697 86.9347 530.694 87.2159ZM538.21 91.1236C537.792 91.1236 537.42 91.0511 537.094 90.9062C536.767 90.7585 536.508 90.5412 536.318 90.2543C536.131 89.9645 536.037 89.6037 536.037 89.1719C536.037 88.8082 536.104 88.5028 536.237 88.2557C536.371 88.0085 536.552 87.8097 536.782 87.6591C537.013 87.5085 537.274 87.3949 537.567 87.3182C537.862 87.2415 538.172 87.1875 538.496 87.1562C538.876 87.1165 539.183 87.0795 539.416 87.0455C539.649 87.0085 539.818 86.9545 539.923 86.8835C540.028 86.8125 540.081 86.7074 540.081 86.5682V86.5426C540.081 86.2727 539.996 86.0639 539.825 85.9162C539.657 85.7685 539.419 85.6946 539.109 85.6946C538.782 85.6946 538.523 85.767 538.329 85.9119C538.136 86.054 538.008 86.233 537.946 86.4489L536.267 86.3125C536.352 85.9148 536.52 85.571 536.77 85.2812C537.02 84.9886 537.342 84.7642 537.737 84.608C538.135 84.4489 538.595 84.3693 539.118 84.3693C539.481 84.3693 539.829 84.4119 540.162 84.4972C540.497 84.5824 540.794 84.7145 541.052 84.8935C541.314 85.0724 541.52 85.3026 541.67 85.5838C541.821 85.8622 541.896 86.196 541.896 86.5852V91H540.175V90.0923H540.123C540.018 90.2969 539.878 90.4773 539.702 90.6335C539.525 90.7869 539.314 90.9077 539.067 90.9957C538.819 91.081 538.534 91.1236 538.21 91.1236ZM538.73 89.8707C538.997 89.8707 539.233 89.8182 539.437 89.7131C539.642 89.6051 539.802 89.4602 539.919 89.2784C540.035 89.0966 540.094 88.8906 540.094 88.6605V87.9659C540.037 88.0028 539.959 88.0369 539.859 88.0682C539.763 88.0966 539.653 88.1236 539.531 88.1491C539.409 88.1719 539.287 88.1932 539.165 88.2131C539.042 88.2301 538.932 88.2457 538.832 88.2599C538.619 88.2912 538.433 88.3409 538.274 88.4091C538.115 88.4773 537.991 88.5696 537.903 88.6861C537.815 88.7997 537.771 88.9418 537.771 89.1122C537.771 89.3594 537.861 89.5483 538.04 89.679C538.221 89.8068 538.452 89.8707 538.73 89.8707ZM543.305 91V84.4545H545.035V85.6094H545.111C545.248 85.2259 545.475 84.9233 545.793 84.7017C546.111 84.4801 546.492 84.3693 546.935 84.3693C547.384 84.3693 547.766 84.4815 548.081 84.706C548.397 84.9276 548.607 85.2287 548.712 85.6094H548.78C548.914 85.2344 549.155 84.9347 549.505 84.7102C549.857 84.483 550.273 84.3693 550.753 84.3693C551.364 84.3693 551.86 84.5639 552.241 84.9531C552.624 85.3395 552.816 85.8878 552.816 86.598V91H551.005V86.956C551.005 86.5923 550.908 86.3196 550.715 86.1378C550.522 85.956 550.28 85.8651 549.991 85.8651C549.661 85.8651 549.404 85.9702 549.219 86.1804C549.035 86.3878 548.942 86.6619 548.942 87.0028V91H547.182V86.9176C547.182 86.5966 547.09 86.3409 546.905 86.1506C546.724 85.9602 546.483 85.8651 546.185 85.8651C545.983 85.8651 545.802 85.9162 545.64 86.0185C545.481 86.1179 545.354 86.2585 545.26 86.4403C545.167 86.6193 545.12 86.8295 545.12 87.071V91H543.305ZM557.233 91.1278C556.559 91.1278 555.98 90.9915 555.494 90.7188C555.011 90.4432 554.639 90.054 554.378 89.5511C554.116 89.0455 553.986 88.4474 553.986 87.7571C553.986 87.0838 554.116 86.4929 554.378 85.9844C554.639 85.4759 555.007 85.0795 555.481 84.7955C555.959 84.5114 556.518 84.3693 557.16 84.3693C557.592 84.3693 557.994 84.4389 558.366 84.5781C558.741 84.7145 559.068 84.9205 559.346 85.196C559.628 85.4716 559.846 85.8182 560.003 86.2358C560.159 86.6506 560.237 87.1364 560.237 87.6932V88.1918H554.71V87.0668H558.528C558.528 86.8054 558.471 86.5739 558.358 86.3722C558.244 86.1705 558.086 86.0128 557.885 85.8991C557.686 85.7827 557.454 85.7244 557.19 85.7244C556.915 85.7244 556.67 85.7884 556.457 85.9162C556.247 86.0412 556.082 86.2102 555.963 86.4233C555.844 86.6335 555.782 86.8679 555.78 87.1264V88.196C555.78 88.5199 555.839 88.7997 555.959 89.0355C556.081 89.2713 556.253 89.4531 556.474 89.581C556.696 89.7088 556.959 89.7727 557.263 89.7727C557.464 89.7727 557.649 89.7443 557.817 89.6875C557.984 89.6307 558.128 89.5455 558.247 89.4318C558.366 89.3182 558.457 89.179 558.52 89.0142L560.199 89.125C560.113 89.5284 559.939 89.8807 559.675 90.1818C559.413 90.4801 559.075 90.7131 558.66 90.8807C558.248 91.0455 557.773 91.1278 557.233 91.1278ZM566.868 86.321L565.206 86.4233C565.177 86.2812 565.116 86.1534 565.023 86.0398C564.929 85.9233 564.805 85.831 564.652 85.7628C564.501 85.6918 564.321 85.6562 564.111 85.6562C563.829 85.6562 563.592 85.7159 563.399 85.8352C563.206 85.9517 563.109 86.108 563.109 86.304C563.109 86.4602 563.172 86.5923 563.297 86.7003C563.422 86.8082 563.636 86.8949 563.94 86.9602L565.125 87.1989C565.761 87.3295 566.236 87.5398 566.548 87.8295C566.861 88.1193 567.017 88.5 567.017 88.9716C567.017 89.4006 566.89 89.777 566.638 90.1009C566.388 90.4247 566.044 90.6776 565.606 90.8594C565.172 91.0384 564.67 91.1278 564.102 91.1278C563.236 91.1278 562.545 90.9474 562.031 90.5866C561.52 90.223 561.22 89.7287 561.132 89.1037L562.917 89.0099C562.971 89.2741 563.102 89.4759 563.309 89.6151C563.517 89.7514 563.782 89.8196 564.106 89.8196C564.425 89.8196 564.68 89.7585 564.873 89.6364C565.069 89.5114 565.169 89.3509 565.172 89.1548C565.169 88.9901 565.099 88.8551 564.963 88.75C564.827 88.642 564.616 88.5597 564.332 88.5028L563.199 88.277C562.559 88.1491 562.084 87.9276 561.771 87.6122C561.461 87.2969 561.307 86.8949 561.307 86.4062C561.307 85.9858 561.42 85.6236 561.648 85.3196C561.878 85.0156 562.2 84.7812 562.615 84.6165C563.032 84.4517 563.521 84.3693 564.081 84.3693C564.907 84.3693 565.558 84.544 566.032 84.8935C566.51 85.2429 566.788 85.7187 566.868 86.321ZM490.295 97.2727V106H489.238V97.2727H490.295ZM493.284 102.062V106H492.278V99.4545H493.249V100.477H493.335C493.488 100.145 493.721 99.8778 494.034 99.6761C494.346 99.4716 494.749 99.3693 495.244 99.3693C495.687 99.3693 496.075 99.4602 496.407 99.642C496.74 99.821 496.998 100.094 497.183 100.46C497.367 100.824 497.46 101.284 497.46 101.841V106H496.454V101.909C496.454 101.395 496.32 100.994 496.053 100.707C495.786 100.418 495.42 100.273 494.954 100.273C494.633 100.273 494.346 100.342 494.093 100.482C493.843 100.621 493.646 100.824 493.501 101.091C493.356 101.358 493.284 101.682 493.284 102.062ZM501.769 106.136C501.224 106.136 500.742 105.999 500.324 105.723C499.907 105.445 499.58 105.053 499.344 104.547C499.108 104.038 498.991 103.438 498.991 102.744C498.991 102.057 499.108 101.46 499.344 100.955C499.58 100.449 499.908 100.058 500.329 99.7827C500.749 99.5071 501.235 99.3693 501.786 99.3693C502.212 99.3693 502.549 99.4403 502.796 99.5824C503.046 99.7216 503.236 99.8807 503.367 100.06C503.501 100.236 503.604 100.381 503.678 100.494H503.763V97.2727H504.769V106H503.797V104.994H503.678C503.604 105.114 503.499 105.264 503.363 105.446C503.226 105.625 503.032 105.786 502.779 105.928C502.526 106.067 502.189 106.136 501.769 106.136ZM501.905 105.233C502.309 105.233 502.65 105.128 502.928 104.918C503.206 104.705 503.418 104.411 503.563 104.036C503.708 103.658 503.78 103.222 503.78 102.727C503.78 102.239 503.709 101.811 503.567 101.445C503.425 101.075 503.215 100.788 502.937 100.584C502.658 100.376 502.314 100.273 501.905 100.273C501.479 100.273 501.124 100.382 500.84 100.601C500.559 100.817 500.347 101.111 500.205 101.483C500.066 101.852 499.996 102.267 499.996 102.727C499.996 103.193 500.067 103.616 500.209 103.997C500.354 104.375 500.567 104.676 500.849 104.901C501.133 105.122 501.485 105.233 501.905 105.233ZM510.876 103.324V99.4545H511.881V106H510.876V104.892H510.807C510.654 105.224 510.415 105.507 510.091 105.74C509.768 105.97 509.358 106.085 508.864 106.085C508.455 106.085 508.091 105.996 507.773 105.817C507.455 105.635 507.205 105.362 507.023 104.999C506.841 104.632 506.751 104.17 506.751 103.614V99.4545H507.756V103.545C507.756 104.023 507.89 104.403 508.157 104.688C508.427 104.972 508.77 105.114 509.188 105.114C509.438 105.114 509.692 105.05 509.951 104.922C510.212 104.794 510.431 104.598 510.607 104.334C510.786 104.07 510.876 103.733 510.876 103.324ZM518.36 100.92L517.456 101.176C517.399 101.026 517.316 100.879 517.205 100.737C517.097 100.592 516.949 100.473 516.762 100.379C516.574 100.286 516.334 100.239 516.041 100.239C515.641 100.239 515.307 100.331 515.04 100.516C514.776 100.697 514.644 100.929 514.644 101.21C514.644 101.46 514.735 101.658 514.916 101.803C515.098 101.947 515.382 102.068 515.769 102.165L516.74 102.403C517.325 102.545 517.762 102.763 518.048 103.055C518.335 103.345 518.479 103.719 518.479 104.176C518.479 104.551 518.371 104.886 518.155 105.182C517.942 105.477 517.644 105.71 517.26 105.881C516.877 106.051 516.431 106.136 515.922 106.136C515.254 106.136 514.702 105.991 514.264 105.702C513.827 105.412 513.55 104.989 513.433 104.432L514.388 104.193C514.479 104.545 514.651 104.81 514.904 104.986C515.159 105.162 515.493 105.25 515.905 105.25C516.374 105.25 516.746 105.151 517.021 104.952C517.3 104.75 517.439 104.509 517.439 104.227C517.439 104 517.36 103.81 517.2 103.656C517.041 103.5 516.797 103.384 516.468 103.307L515.377 103.051C514.777 102.909 514.337 102.689 514.056 102.391C513.777 102.089 513.638 101.713 513.638 101.261C513.638 100.892 513.742 100.565 513.949 100.281C514.159 99.9972 514.445 99.7741 514.806 99.6122C515.169 99.4503 515.581 99.3693 516.041 99.3693C516.689 99.3693 517.198 99.5114 517.567 99.7955C517.939 100.08 518.203 100.455 518.36 100.92ZM522.839 99.4545V100.307H519.447V99.4545H522.839ZM520.436 97.8864H521.442V104.125C521.442 104.409 521.483 104.622 521.565 104.764C521.65 104.903 521.758 104.997 521.889 105.045C522.023 105.091 522.163 105.114 522.311 105.114C522.422 105.114 522.513 105.108 522.584 105.097C522.655 105.082 522.711 105.071 522.754 105.062L522.959 105.966C522.89 105.991 522.795 106.017 522.673 106.043C522.551 106.071 522.396 106.085 522.209 106.085C521.925 106.085 521.646 106.024 521.373 105.902C521.104 105.78 520.879 105.594 520.7 105.344C520.524 105.094 520.436 104.778 520.436 104.398V97.8864ZM524.352 106V99.4545H525.324V100.443H525.392C525.511 100.119 525.727 99.8565 526.04 99.6548C526.352 99.4531 526.704 99.3523 527.096 99.3523C527.17 99.3523 527.263 99.3537 527.373 99.3565C527.484 99.3594 527.568 99.3636 527.625 99.3693V100.392C527.591 100.384 527.513 100.371 527.39 100.354C527.271 100.334 527.145 100.324 527.011 100.324C526.693 100.324 526.409 100.391 526.159 100.524C525.912 100.655 525.716 100.837 525.571 101.07C525.429 101.3 525.358 101.562 525.358 101.858V106H524.352ZM529.664 108.455C529.493 108.455 529.341 108.44 529.208 108.412C529.074 108.386 528.982 108.361 528.931 108.335L529.187 107.449C529.431 107.511 529.647 107.534 529.834 107.517C530.022 107.5 530.188 107.416 530.333 107.266C530.481 107.118 530.616 106.878 530.738 106.545L530.925 106.034L528.505 99.4545H529.596L531.403 104.67H531.471L533.278 99.4545H534.368L531.59 106.955C531.465 107.293 531.31 107.572 531.126 107.794C530.941 108.018 530.726 108.185 530.482 108.293C530.241 108.401 529.968 108.455 529.664 108.455ZM539.207 106V97.2727H544.44V98.2102H540.264V101.159H544.048V102.097H540.264V106H539.207ZM548.292 106.136C547.702 106.136 547.183 105.996 546.737 105.714C546.294 105.433 545.947 105.04 545.697 104.534C545.45 104.028 545.327 103.437 545.327 102.761C545.327 102.08 545.45 101.484 545.697 100.976C545.947 100.467 546.294 100.072 546.737 99.7912C547.183 99.5099 547.702 99.3693 548.292 99.3693C548.883 99.3693 549.4 99.5099 549.844 99.7912C550.29 100.072 550.636 100.467 550.883 100.976C551.133 101.484 551.258 102.08 551.258 102.761C551.258 103.437 551.133 104.028 550.883 104.534C550.636 105.04 550.29 105.433 549.844 105.714C549.4 105.996 548.883 106.136 548.292 106.136ZM548.292 105.233C548.741 105.233 549.111 105.118 549.4 104.888C549.69 104.658 549.905 104.355 550.044 103.98C550.183 103.605 550.253 103.199 550.253 102.761C550.253 102.324 550.183 101.916 550.044 101.538C549.905 101.161 549.69 100.855 549.4 100.622C549.111 100.389 548.741 100.273 548.292 100.273C547.844 100.273 547.474 100.389 547.184 100.622C546.895 100.855 546.68 101.161 546.541 101.538C546.402 101.916 546.332 102.324 546.332 102.761C546.332 103.199 546.402 103.605 546.541 103.98C546.68 104.355 546.895 104.658 547.184 104.888C547.474 105.118 547.844 105.233 548.292 105.233ZM555.453 106.136C554.839 106.136 554.311 105.991 553.867 105.702C553.424 105.412 553.083 105.013 552.845 104.504C552.606 103.996 552.487 103.415 552.487 102.761C552.487 102.097 552.609 101.51 552.853 101.001C553.1 100.49 553.444 100.091 553.884 99.804C554.328 99.5142 554.845 99.3693 555.436 99.3693C555.896 99.3693 556.311 99.4545 556.68 99.625C557.049 99.7955 557.352 100.034 557.588 100.341C557.823 100.648 557.97 101.006 558.026 101.415H557.021C556.944 101.116 556.774 100.852 556.509 100.622C556.248 100.389 555.896 100.273 555.453 100.273C555.061 100.273 554.717 100.375 554.421 100.58C554.129 100.781 553.9 101.067 553.735 101.436C553.573 101.803 553.492 102.233 553.492 102.727C553.492 103.233 553.572 103.673 553.731 104.048C553.893 104.423 554.12 104.714 554.413 104.922C554.708 105.129 555.055 105.233 555.453 105.233C555.714 105.233 555.951 105.188 556.164 105.097C556.377 105.006 556.558 104.875 556.705 104.705C556.853 104.534 556.958 104.33 557.021 104.091H558.026C557.97 104.477 557.829 104.825 557.605 105.135C557.383 105.442 557.089 105.686 556.722 105.868C556.359 106.047 555.936 106.136 555.453 106.136ZM563.622 103.324V99.4545H564.627V106H563.622V104.892H563.553C563.4 105.224 563.161 105.507 562.838 105.74C562.514 105.97 562.105 106.085 561.61 106.085C561.201 106.085 560.838 105.996 560.519 105.817C560.201 105.635 559.951 105.362 559.769 104.999C559.588 104.632 559.497 104.17 559.497 103.614V99.4545H560.502V103.545C560.502 104.023 560.636 104.403 560.903 104.688C561.173 104.972 561.517 105.114 561.934 105.114C562.184 105.114 562.438 105.05 562.697 104.922C562.958 104.794 563.177 104.598 563.353 104.334C563.532 104.07 563.622 103.733 563.622 103.324ZM571.106 100.92L570.202 101.176C570.145 101.026 570.062 100.879 569.951 100.737C569.843 100.592 569.695 100.473 569.508 100.379C569.32 100.286 569.08 100.239 568.787 100.239C568.387 100.239 568.053 100.331 567.786 100.516C567.522 100.697 567.39 100.929 567.39 101.21C567.39 101.46 567.481 101.658 567.662 101.803C567.844 101.947 568.128 102.068 568.515 102.165L569.486 102.403C570.072 102.545 570.508 102.763 570.795 103.055C571.081 103.345 571.225 103.719 571.225 104.176C571.225 104.551 571.117 104.886 570.901 105.182C570.688 105.477 570.39 105.71 570.006 105.881C569.623 106.051 569.177 106.136 568.668 106.136C568.001 106.136 567.448 105.991 567.01 105.702C566.573 105.412 566.296 104.989 566.18 104.432L567.134 104.193C567.225 104.545 567.397 104.81 567.65 104.986C567.905 105.162 568.239 105.25 568.651 105.25C569.12 105.25 569.492 105.151 569.768 104.952C570.046 104.75 570.185 104.509 570.185 104.227C570.185 104 570.106 103.81 569.947 103.656C569.787 103.5 569.543 103.384 569.214 103.307L568.123 103.051C567.523 102.909 567.083 102.689 566.802 102.391C566.523 102.089 566.384 101.713 566.384 101.261C566.384 100.892 566.488 100.565 566.695 100.281C566.905 99.9972 567.191 99.7741 567.552 99.6122C567.915 99.4503 568.327 99.3693 568.787 99.3693C569.435 99.3693 569.944 99.5114 570.313 99.7955C570.685 100.08 570.949 100.455 571.106 100.92Z" fill="white"/>
<path d="M606.336 82.2727V91H604.491V84.0241H604.44L602.441 85.277V83.6406L604.602 82.2727H606.336ZM611.598 91.1193C610.996 91.1193 610.459 91.0085 609.987 90.7869C609.518 90.5653 609.146 90.2599 608.871 89.8707C608.595 89.4815 608.452 89.0355 608.44 88.5327H610.23C610.25 88.8707 610.392 89.1449 610.656 89.3551C610.92 89.5653 611.234 89.6705 611.598 89.6705C611.888 89.6705 612.143 89.6065 612.365 89.4787C612.589 89.348 612.764 89.1676 612.889 88.9375C613.017 88.7045 613.081 88.4375 613.081 88.1364C613.081 87.8295 613.016 87.5597 612.885 87.3267C612.757 87.0937 612.58 86.9119 612.352 86.7812C612.125 86.6506 611.865 86.5838 611.572 86.581C611.317 86.581 611.068 86.6335 610.827 86.7386C610.588 86.8437 610.402 86.9872 610.268 87.169L608.628 86.875L609.041 82.2727H614.376V83.7812H610.562L610.337 85.9673H610.388C610.541 85.7514 610.773 85.5724 611.082 85.4304C611.392 85.2884 611.739 85.2173 612.122 85.2173C612.648 85.2173 613.116 85.3409 613.528 85.5881C613.94 85.8352 614.266 86.1747 614.504 86.6065C614.743 87.0355 614.861 87.5298 614.858 88.0895C614.861 88.6776 614.724 89.2003 614.449 89.6577C614.176 90.1122 613.794 90.4702 613.303 90.7315C612.814 90.9901 612.246 91.1193 611.598 91.1193ZM620.24 85.9162V87.3565H616.26V85.9162H620.24ZM621.524 91V89.6705L624.63 86.794C624.895 86.5384 625.116 86.3082 625.295 86.1037C625.477 85.8991 625.615 85.6989 625.708 85.5028C625.802 85.304 625.849 85.0895 625.849 84.8594C625.849 84.6037 625.791 84.3835 625.674 84.1989C625.558 84.0114 625.399 83.8679 625.197 83.7685C624.995 83.6662 624.767 83.6151 624.511 83.6151C624.244 83.6151 624.011 83.669 623.812 83.777C623.613 83.8849 623.46 84.0398 623.352 84.2415C623.244 84.4432 623.19 84.6832 623.19 84.9616H621.439C621.439 84.3906 621.568 83.8949 621.826 83.4744C622.085 83.054 622.447 82.7287 622.913 82.4986C623.379 82.2685 623.916 82.1534 624.524 82.1534C625.149 82.1534 625.693 82.2642 626.156 82.4858C626.622 82.7045 626.984 83.0085 627.243 83.3977C627.501 83.7869 627.63 84.233 627.63 84.7358C627.63 85.0653 627.565 85.3906 627.434 85.7116C627.306 86.0327 627.078 86.3892 626.748 86.7812C626.419 87.1705 625.954 87.6378 625.355 88.1832L624.081 89.4318V89.4915H627.745V91H621.524ZM632.27 91.1193C631.668 91.1193 631.131 91.0085 630.659 90.7869C630.19 90.5653 629.818 90.2599 629.543 89.8707C629.267 89.4815 629.124 89.0355 629.112 88.5327H630.902C630.922 88.8707 631.064 89.1449 631.328 89.3551C631.592 89.5653 631.906 89.6705 632.27 89.6705C632.56 89.6705 632.815 89.6065 633.037 89.4787C633.261 89.348 633.436 89.1676 633.561 88.9375C633.689 88.7045 633.753 88.4375 633.753 88.1364C633.753 87.8295 633.688 87.5597 633.557 87.3267C633.429 87.0937 633.251 86.9119 633.024 86.7812C632.797 86.6506 632.537 86.5838 632.244 86.581C631.989 86.581 631.74 86.6335 631.499 86.7386C631.26 86.8437 631.074 86.9872 630.94 87.169L629.3 86.875L629.713 82.2727H635.048V83.7812H631.234L631.009 85.9673H631.06C631.213 85.7514 631.445 85.5724 631.754 85.4304C632.064 85.2884 632.411 85.2173 632.794 85.2173C633.32 85.2173 633.788 85.3409 634.2 85.5881C634.612 85.8352 634.938 86.1747 635.176 86.6065C635.415 87.0355 635.533 87.5298 635.53 88.0895C635.533 88.6776 635.396 89.2003 635.121 89.6577C634.848 90.1122 634.466 90.4702 633.974 90.7315C633.486 90.9901 632.918 91.1193 632.27 91.1193ZM641.426 87.2159V91H639.611V84.4545H641.341V85.6094H641.418C641.563 85.2287 641.806 84.9276 642.147 84.706C642.488 84.4815 642.901 84.3693 643.387 84.3693C643.841 84.3693 644.238 84.4688 644.576 84.6676C644.914 84.8665 645.176 85.1506 645.364 85.5199C645.551 85.8864 645.645 86.3239 645.645 86.8324V91H643.83V87.1562C643.833 86.7557 643.73 86.4432 643.523 86.2188C643.316 85.9915 643.03 85.8778 642.667 85.8778C642.422 85.8778 642.206 85.9304 642.019 86.0355C641.834 86.1406 641.689 86.294 641.584 86.4957C641.482 86.6946 641.429 86.9347 641.426 87.2159ZM648.942 91.1236C648.525 91.1236 648.153 91.0511 647.826 90.9062C647.499 90.7585 647.241 90.5412 647.05 90.2543C646.863 89.9645 646.769 89.6037 646.769 89.1719C646.769 88.8082 646.836 88.5028 646.969 88.2557C647.103 88.0085 647.285 87.8097 647.515 87.6591C647.745 87.5085 648.006 87.3949 648.299 87.3182C648.594 87.2415 648.904 87.1875 649.228 87.1562C649.609 87.1165 649.915 87.0795 650.148 87.0455C650.381 87.0085 650.55 86.9545 650.656 86.8835C650.761 86.8125 650.813 86.7074 650.813 86.5682V86.5426C650.813 86.2727 650.728 86.0639 650.558 85.9162C650.39 85.7685 650.151 85.6946 649.842 85.6946C649.515 85.6946 649.255 85.767 649.062 85.9119C648.869 86.054 648.741 86.233 648.678 86.4489L646.999 86.3125C647.085 85.9148 647.252 85.571 647.502 85.2812C647.752 84.9886 648.075 84.7642 648.469 84.608C648.867 84.4489 649.327 84.3693 649.85 84.3693C650.214 84.3693 650.562 84.4119 650.894 84.4972C651.229 84.5824 651.526 84.7145 651.785 84.8935C652.046 85.0724 652.252 85.3026 652.403 85.5838C652.553 85.8622 652.629 86.196 652.629 86.5852V91H650.907V90.0923H650.856C650.751 90.2969 650.61 90.4773 650.434 90.6335C650.258 90.7869 650.046 90.9077 649.799 90.9957C649.552 91.081 649.266 91.1236 648.942 91.1236ZM649.462 89.8707C649.729 89.8707 649.965 89.8182 650.17 89.7131C650.374 89.6051 650.535 89.4602 650.651 89.2784C650.768 89.0966 650.826 88.8906 650.826 88.6605V87.9659C650.769 88.0028 650.691 88.0369 650.592 88.0682C650.495 88.0966 650.386 88.1236 650.263 88.1491C650.141 88.1719 650.019 88.1932 649.897 88.2131C649.775 88.2301 649.664 88.2457 649.565 88.2599C649.352 88.2912 649.165 88.3409 649.006 88.4091C648.847 88.4773 648.724 88.5696 648.636 88.6861C648.548 88.7997 648.504 88.9418 648.504 89.1122C648.504 89.3594 648.593 89.5483 648.772 89.679C648.954 89.8068 649.184 89.8707 649.462 89.8707ZM654.037 91V84.4545H655.767V85.6094H655.844C655.98 85.2259 656.207 84.9233 656.526 84.7017C656.844 84.4801 657.224 84.3693 657.668 84.3693C658.116 84.3693 658.499 84.4815 658.814 84.706C659.129 84.9276 659.339 85.2287 659.445 85.6094H659.513C659.646 85.2344 659.888 84.9347 660.237 84.7102C660.589 84.483 661.006 84.3693 661.486 84.3693C662.097 84.3693 662.592 84.5639 662.973 84.9531C663.357 85.3395 663.548 85.8878 663.548 86.598V91H661.737V86.956C661.737 86.5923 661.641 86.3196 661.447 86.1378C661.254 85.956 661.013 85.8651 660.723 85.8651C660.393 85.8651 660.136 85.9702 659.952 86.1804C659.767 86.3878 659.675 86.6619 659.675 87.0028V91H657.915V86.9176C657.915 86.5966 657.822 86.3409 657.638 86.1506C657.456 85.9602 657.216 85.8651 656.918 85.8651C656.716 85.8651 656.534 85.9162 656.372 86.0185C656.213 86.1179 656.087 86.2585 655.993 86.4403C655.899 86.6193 655.852 86.8295 655.852 87.071V91H654.037ZM667.965 91.1278C667.292 91.1278 666.712 90.9915 666.227 90.7188C665.744 90.4432 665.371 90.054 665.11 89.5511C664.849 89.0455 664.718 88.4474 664.718 87.7571C664.718 87.0838 664.849 86.4929 665.11 85.9844C665.371 85.4759 665.739 85.0795 666.214 84.7955C666.691 84.5114 667.251 84.3693 667.893 84.3693C668.325 84.3693 668.727 84.4389 669.099 84.5781C669.474 84.7145 669.8 84.9205 670.079 85.196C670.36 85.4716 670.579 85.8182 670.735 86.2358C670.891 86.6506 670.969 87.1364 670.969 87.6932V88.1918H665.442V87.0668H669.261C669.261 86.8054 669.204 86.5739 669.09 86.3722C668.977 86.1705 668.819 86.0128 668.617 85.8991C668.418 85.7827 668.187 85.7244 667.923 85.7244C667.647 85.7244 667.403 85.7884 667.19 85.9162C666.979 86.0412 666.815 86.2102 666.695 86.4233C666.576 86.6335 666.515 86.8679 666.512 87.1264V88.196C666.512 88.5199 666.572 88.7997 666.691 89.0355C666.813 89.2713 666.985 89.4531 667.207 89.581C667.428 89.7088 667.691 89.7727 667.995 89.7727C668.197 89.7727 668.381 89.7443 668.549 89.6875C668.717 89.6307 668.86 89.5455 668.979 89.4318C669.099 89.3182 669.19 89.179 669.252 89.0142L670.931 89.125C670.846 89.5284 670.671 89.8807 670.407 90.1818C670.146 90.4801 669.808 90.7131 669.393 90.8807C668.981 91.0455 668.505 91.1278 667.965 91.1278ZM677.6 86.321L675.938 86.4233C675.91 86.2812 675.849 86.1534 675.755 86.0398C675.661 85.9233 675.538 85.831 675.384 85.7628C675.234 85.6918 675.053 85.6562 674.843 85.6562C674.562 85.6562 674.325 85.7159 674.131 85.8352C673.938 85.9517 673.842 86.108 673.842 86.304C673.842 86.4602 673.904 86.5923 674.029 86.7003C674.154 86.8082 674.369 86.8949 674.673 86.9602L675.857 87.1989C676.494 87.3295 676.968 87.5398 677.281 87.8295C677.593 88.1193 677.749 88.5 677.749 88.9716C677.749 89.4006 677.623 89.777 677.37 90.1009C677.12 90.4247 676.776 90.6776 676.339 90.8594C675.904 91.0384 675.403 91.1278 674.835 91.1278C673.968 91.1278 673.278 90.9474 672.763 90.5866C672.252 90.223 671.952 89.7287 671.864 89.1037L673.65 89.0099C673.704 89.2741 673.835 89.4759 674.042 89.6151C674.249 89.7514 674.515 89.8196 674.839 89.8196C675.157 89.8196 675.413 89.7585 675.606 89.6364C675.802 89.5114 675.901 89.3509 675.904 89.1548C675.901 88.9901 675.832 88.8551 675.695 88.75C675.559 88.642 675.349 88.5597 675.065 88.5028L673.931 88.277C673.292 88.1491 672.816 87.9276 672.504 87.6122C672.194 87.2969 672.039 86.8949 672.039 86.4062C672.039 85.9858 672.153 85.6236 672.38 85.3196C672.61 85.0156 672.933 84.7812 673.347 84.6165C673.765 84.4517 674.254 84.3693 674.813 84.3693C675.64 84.3693 676.29 84.544 676.765 84.8935C677.242 85.2429 677.521 85.7187 677.6 86.321ZM604.272 106V97.2727H609.505V98.2102H605.328V101.159H609.113V102.097H605.328V106H604.272ZM611.315 106V97.2727H612.371V105.062H616.428V106H611.315ZM624.748 100H623.691C623.628 99.696 623.519 99.429 623.363 99.1989C623.209 98.9688 623.022 98.7756 622.8 98.6193C622.581 98.4602 622.338 98.3409 622.071 98.2614C621.804 98.1818 621.526 98.142 621.236 98.142C620.708 98.142 620.229 98.2756 619.8 98.5426C619.374 98.8097 619.034 99.2031 618.782 99.723C618.532 100.243 618.407 100.881 618.407 101.636C618.407 102.392 618.532 103.03 618.782 103.55C619.034 104.07 619.374 104.463 619.8 104.73C620.229 104.997 620.708 105.131 621.236 105.131C621.526 105.131 621.804 105.091 622.071 105.011C622.338 104.932 622.581 104.814 622.8 104.658C623.022 104.499 623.209 104.304 623.363 104.074C623.519 103.841 623.628 103.574 623.691 103.273H624.748C624.668 103.719 624.523 104.118 624.313 104.47C624.103 104.822 623.841 105.122 623.529 105.369C623.216 105.614 622.865 105.8 622.476 105.928C622.09 106.055 621.676 106.119 621.236 106.119C620.492 106.119 619.83 105.938 619.25 105.574C618.671 105.21 618.215 104.693 617.882 104.023C617.55 103.352 617.384 102.557 617.384 101.636C617.384 100.716 617.55 99.9205 617.882 99.25C618.215 98.5795 618.671 98.0625 619.25 97.6989C619.83 97.3352 620.492 97.1534 621.236 97.1534C621.676 97.1534 622.09 97.2173 622.476 97.3452C622.865 97.473 623.216 97.6605 623.529 97.9077C623.841 98.152 624.103 98.4503 624.313 98.8026C624.523 99.152 624.668 99.5511 624.748 100ZM629.83 106V97.2727H632.779C633.464 97.2727 634.023 97.3963 634.458 97.6435C634.896 97.8878 635.219 98.2188 635.43 98.6364C635.64 99.054 635.745 99.5199 635.745 100.034C635.745 100.548 635.64 101.016 635.43 101.436C635.222 101.857 634.901 102.192 634.467 102.442C634.032 102.689 633.475 102.812 632.796 102.812H630.683V101.875H632.762C633.231 101.875 633.607 101.794 633.891 101.632C634.175 101.47 634.381 101.251 634.509 100.976C634.64 100.697 634.705 100.384 634.705 100.034C634.705 99.6847 634.64 99.3722 634.509 99.0966C634.381 98.821 634.174 98.6051 633.887 98.4489C633.6 98.2898 633.219 98.2102 632.745 98.2102H630.887V106H629.83ZM639.9 106.136C639.309 106.136 638.79 105.996 638.344 105.714C637.901 105.433 637.555 105.04 637.305 104.534C637.058 104.028 636.934 103.437 636.934 102.761C636.934 102.08 637.058 101.484 637.305 100.976C637.555 100.467 637.901 100.072 638.344 99.7912C638.79 99.5099 639.309 99.3693 639.9 99.3693C640.491 99.3693 641.008 99.5099 641.451 99.7912C641.897 100.072 642.244 100.467 642.491 100.976C642.741 101.484 642.866 102.08 642.866 102.761C642.866 103.437 642.741 104.028 642.491 104.534C642.244 105.04 641.897 105.433 641.451 105.714C641.008 105.996 640.491 106.136 639.9 106.136ZM639.9 105.233C640.349 105.233 640.718 105.118 641.008 104.888C641.298 104.658 641.512 104.355 641.651 103.98C641.79 103.605 641.86 103.199 641.86 102.761C641.86 102.324 641.79 101.916 641.651 101.538C641.512 101.161 641.298 100.855 641.008 100.622C640.718 100.389 640.349 100.273 639.9 100.273C639.451 100.273 639.082 100.389 638.792 100.622C638.502 100.855 638.288 101.161 638.148 101.538C638.009 101.916 637.94 102.324 637.94 102.761C637.94 103.199 638.009 103.605 638.148 103.98C638.288 104.355 638.502 104.658 638.792 104.888C639.082 105.118 639.451 105.233 639.9 105.233ZM644.401 106V99.4545H645.373V100.443H645.441C645.56 100.119 645.776 99.8565 646.088 99.6548C646.401 99.4531 646.753 99.3523 647.145 99.3523C647.219 99.3523 647.311 99.3537 647.422 99.3565C647.533 99.3594 647.617 99.3636 647.674 99.3693V100.392C647.64 100.384 647.561 100.371 647.439 100.354C647.32 100.334 647.194 100.324 647.06 100.324C646.742 100.324 646.458 100.391 646.208 100.524C645.961 100.655 645.765 100.837 645.62 101.07C645.478 101.3 645.407 101.562 645.407 101.858V106H644.401ZM652.123 99.4545V100.307H648.73V99.4545H652.123ZM649.719 97.8864H650.725V104.125C650.725 104.409 650.766 104.622 650.848 104.764C650.934 104.903 651.042 104.997 651.172 105.045C651.306 105.091 651.446 105.114 651.594 105.114C651.705 105.114 651.796 105.108 651.867 105.097C651.938 105.082 651.995 105.071 652.037 105.062L652.242 105.966C652.174 105.991 652.078 106.017 651.956 106.043C651.834 106.071 651.679 106.085 651.492 106.085C651.208 106.085 650.929 106.024 650.657 105.902C650.387 105.78 650.162 105.594 649.983 105.344C649.807 105.094 649.719 104.778 649.719 104.398V97.8864ZM656.55 99.4545V100.307H653.022V99.4545H656.55ZM654.078 106V98.5511C654.078 98.1761 654.167 97.8636 654.343 97.6136C654.519 97.3636 654.748 97.1761 655.029 97.0511C655.31 96.9261 655.607 96.8636 655.919 96.8636C656.167 96.8636 656.368 96.8835 656.525 96.9233C656.681 96.9631 656.797 97 656.874 97.0341L656.584 97.9034C656.533 97.8864 656.462 97.8651 656.371 97.8395C656.283 97.8139 656.167 97.8011 656.022 97.8011C655.689 97.8011 655.449 97.8849 655.301 98.0526C655.157 98.2202 655.084 98.4659 655.084 98.7898V106H654.078ZM660.349 106.136C659.758 106.136 659.24 105.996 658.794 105.714C658.35 105.433 658.004 105.04 657.754 104.534C657.507 104.028 657.383 103.437 657.383 102.761C657.383 102.08 657.507 101.484 657.754 100.976C658.004 100.467 658.35 100.072 658.794 99.7912C659.24 99.5099 659.758 99.3693 660.349 99.3693C660.94 99.3693 661.457 99.5099 661.9 99.7912C662.346 100.072 662.693 100.467 662.94 100.976C663.19 101.484 663.315 102.08 663.315 102.761C663.315 103.437 663.19 104.028 662.94 104.534C662.693 105.04 662.346 105.433 661.9 105.714C661.457 105.996 660.94 106.136 660.349 106.136ZM660.349 105.233C660.798 105.233 661.167 105.118 661.457 104.888C661.747 104.658 661.961 104.355 662.1 103.98C662.24 103.605 662.309 103.199 662.309 102.761C662.309 102.324 662.24 101.916 662.1 101.538C661.961 101.161 661.747 100.855 661.457 100.622C661.167 100.389 660.798 100.273 660.349 100.273C659.9 100.273 659.531 100.389 659.241 100.622C658.951 100.855 658.737 101.161 658.598 101.538C658.458 101.916 658.389 102.324 658.389 102.761C658.389 103.199 658.458 103.605 658.598 103.98C658.737 104.355 658.951 104.658 659.241 104.888C659.531 105.118 659.9 105.233 660.349 105.233ZM665.856 97.2727V106H664.85V97.2727H665.856ZM667.698 106V99.4545H668.703V106H667.698ZM668.209 98.3636C668.013 98.3636 667.844 98.2969 667.702 98.1634C667.563 98.0298 667.493 97.8693 667.493 97.6818C667.493 97.4943 667.563 97.3338 667.702 97.2003C667.844 97.0668 668.013 97 668.209 97C668.405 97 668.573 97.0668 668.712 97.2003C668.854 97.3338 668.925 97.4943 668.925 97.6818C668.925 97.8693 668.854 98.0298 668.712 98.1634C668.573 98.2969 668.405 98.3636 668.209 98.3636ZM673.205 106.136C672.614 106.136 672.095 105.996 671.649 105.714C671.206 105.433 670.859 105.04 670.609 104.534C670.362 104.028 670.239 103.437 670.239 102.761C670.239 102.08 670.362 101.484 670.609 100.976C670.859 100.467 671.206 100.072 671.649 99.7912C672.095 99.5099 672.614 99.3693 673.205 99.3693C673.795 99.3693 674.313 99.5099 674.756 99.7912C675.202 100.072 675.548 100.467 675.795 100.976C676.045 101.484 676.17 102.08 676.17 102.761C676.17 103.437 676.045 104.028 675.795 104.534C675.548 105.04 675.202 105.433 674.756 105.714C674.313 105.996 673.795 106.136 673.205 106.136ZM673.205 105.233C673.653 105.233 674.023 105.118 674.312 104.888C674.602 104.658 674.817 104.355 674.956 103.98C675.095 103.605 675.165 103.199 675.165 102.761C675.165 102.324 675.095 101.916 674.956 101.538C674.817 101.161 674.602 100.855 674.312 100.622C674.023 100.389 673.653 100.273 673.205 100.273C672.756 100.273 672.386 100.389 672.097 100.622C671.807 100.855 671.592 101.161 671.453 101.538C671.314 101.916 671.244 102.324 671.244 102.761C671.244 103.199 671.314 103.605 671.453 103.98C671.592 104.355 671.807 104.658 672.097 104.888C672.386 105.118 672.756 105.233 673.205 105.233Z" fill="white"/>
<path d="M197.707 94.7071C198.098 94.3166 198.098 93.6834 197.707 93.2929L191.343 86.9289C190.953 86.5384 190.319 86.5384 189.929 86.9289C189.538 87.3195 189.538 87.9526 189.929 88.3431L195.586 94L189.929 99.6569C189.538 100.047 189.538 100.681 189.929 101.071C190.319 101.462 190.953 101.462 191.343 101.071L197.707 94.7071ZM187 95H197V93H187V95Z" fill="#122545"/>
<path d="M342.707 94.7071C343.098 94.3166 343.098 93.6834 342.707 93.2929L336.343 86.9289C335.953 86.5384 335.319 86.5384 334.929 86.9289C334.538 87.3195 334.538 87.9526 334.929 88.3431L340.586 94L334.929 99.6569C334.538 100.047 334.538 100.681 334.929 101.071C335.319 101.462 335.953 101.462 336.343 101.071L342.707 94.7071ZM332 95H342V93H332V95Z" fill="#122545"/>
<path d="M475.707 94.7071C476.098 94.3166 476.098 93.6834 475.707 93.2929L469.343 86.9289C468.953 86.5384 468.319 86.5384 467.929 86.9289C467.538 87.3195 467.538 87.9526 467.929 88.3431L473.586 94L467.929 99.6569C467.538 100.047 467.538 100.681 467.929 101.071C468.319 101.462 468.953 101.462 469.343 101.071L475.707 94.7071ZM465 95H475V93H465V95Z" fill="#122545"/>
<path d="M594.707 94.7071C595.098 94.3166 595.098 93.6834 594.707 93.2929L588.343 86.9289C587.953 86.5384 587.319 86.5384 586.929 86.9289C586.538 87.3195 586.538 87.9526 586.929 88.3431L592.586 94L586.929 99.6569C586.538 100.047 586.538 100.681 586.929 101.071C587.319 101.462 587.953 101.462 588.343 101.071L594.707 94.7071ZM584 95H594V93H584V95Z" fill="#122545"/>
</svg>
