<svg width="141" height="41" viewBox="0 0 141 41" fill="none" xmlns="http://www.w3.org/2000/svg">
<g clip-path="url(#clip0_4288_213)">
<path d="M52.9707 7.97681H59.6004V9.85692H54.9227V12.2451H59.5105V14.1252H54.9227V18.4226H52.9707V7.97681Z" fill="white"/>
<path d="M63.8062 12.0346C63.8062 10.682 64.1433 9.63352 64.8207 8.88601C65.4981 8.1385 66.4324 7.76636 67.6267 7.76636C68.821 7.76636 69.7553 8.1385 70.4327 8.88601C71.1101 9.63352 71.4472 10.682 71.4472 12.0346V14.3613C71.4472 15.7528 71.1101 16.8142 70.4327 17.539C69.7553 18.2639 68.821 18.6296 67.6267 18.6296C66.4324 18.6296 65.4981 18.2671 64.8207 17.539C64.1433 16.8142 63.8062 15.7528 63.8062 14.3613V12.0346ZM67.6267 16.8368C67.983 16.8368 68.2784 16.7786 68.516 16.6653C68.7536 16.5521 68.9462 16.3903 69.0939 16.1799C69.2416 15.9696 69.3443 15.7237 69.4053 15.4324C69.4631 15.1444 69.4952 14.8273 69.4952 14.4778V11.9117C69.4952 11.5848 69.4599 11.2742 69.3925 10.9862C69.3218 10.6982 69.2159 10.449 69.0682 10.2387C68.9205 10.0283 68.7279 9.86328 68.4903 9.74031C68.2527 9.61734 67.967 9.55262 67.6331 9.55262C67.2992 9.55262 67.0103 9.61411 66.7759 9.74031C66.5383 9.86328 66.3457 10.0316 66.198 10.2387C66.0503 10.449 65.9411 10.6949 65.8737 10.9862C65.8063 11.2742 65.771 11.5816 65.771 11.9117V14.4778C65.771 14.8273 65.7999 15.1444 65.8609 15.4324C65.9187 15.7204 66.0246 15.9696 66.1723 16.1799C66.32 16.3903 66.5126 16.5521 66.7502 16.6653C66.9878 16.7786 67.2832 16.8368 67.6395 16.8368H67.6267Z" fill="white"/>
<path d="M83.3744 7.97681V14.8112C83.3744 16.0053 83.0597 16.9405 82.4337 17.6168C81.8076 18.2931 80.8766 18.6329 79.6437 18.6329C78.4109 18.6329 77.4798 18.2964 76.8538 17.6168C76.2277 16.9405 75.9131 16.0053 75.9131 14.8112V7.97681H77.8683V14.8112C77.8683 15.4293 78.0128 15.9115 78.2985 16.2577C78.5842 16.6072 79.0337 16.7787 79.6469 16.7787C80.2601 16.7787 80.7064 16.604 80.9954 16.2577C81.2811 15.9082 81.4256 15.4261 81.4256 14.8112V7.97681H83.3744Z" fill="white"/>
<path d="M95.4682 18.4193H93.513V15.2869C93.513 15.0474 93.452 14.8533 93.3268 14.7044C93.2048 14.5556 92.9993 14.4811 92.7136 14.4811H90.463V18.4193H88.5078V7.97681H92.476C93.009 7.97681 93.4777 8.05123 93.8822 8.20009C94.2868 8.34895 94.6239 8.55605 94.8968 8.81816C95.1664 9.08028 95.3751 9.3877 95.5196 9.73719C95.6641 10.0867 95.7347 10.4588 95.7347 10.8568V11.216C95.7347 11.6432 95.6223 12.0444 95.3944 12.4166C95.1665 12.7887 94.8165 13.0767 94.3446 13.2741V13.5427C94.6913 13.5815 94.9642 13.7175 95.1665 13.944C95.3687 14.1737 95.4715 14.4617 95.4715 14.808V18.4193H95.4682ZM90.463 12.601H92.3283C92.8035 12.601 93.1631 12.4878 93.4103 12.2645C93.6575 12.0412 93.7795 11.7241 93.7795 11.3163V11.1384C93.7795 10.7889 93.6575 10.4879 93.4103 10.2355C93.1631 9.98312 92.8035 9.85368 92.3283 9.85368H90.463V12.5978V12.601Z" fill="white"/>
<path d="M101.254 7.97681H103.209V16.5392H107.916V18.4193H101.254V7.97681Z" fill="white"/>
<path d="M111.056 7.97681H117.984V9.85692H115.496V16.5392H117.984V18.4193H111.056V16.5392H113.544V9.85692H111.056V7.97681Z" fill="white"/>
<path d="M121.83 12.0346C121.83 10.682 122.167 9.63352 122.845 8.88601C123.522 8.1385 124.456 7.76636 125.651 7.76636C126.845 7.76636 127.779 8.1385 128.457 8.88601C129.134 9.63352 129.471 10.682 129.471 12.0346V14.3613C129.471 15.7528 129.134 16.8142 128.457 17.539C127.779 18.2639 126.845 18.6296 125.651 18.6296C124.456 18.6296 123.522 18.2671 122.845 17.539C122.167 16.8142 121.83 15.7528 121.83 14.3613V12.0346ZM125.651 16.8368C126.007 16.8368 126.302 16.7786 126.54 16.6653C126.778 16.5521 126.97 16.3903 127.118 16.1799C127.266 15.9696 127.368 15.7237 127.429 15.4324C127.487 15.1444 127.519 14.8273 127.519 14.4778V11.9117C127.519 11.5848 127.484 11.2742 127.416 10.9862C127.346 10.6982 127.24 10.449 127.092 10.2387C126.944 10.0283 126.752 9.86328 126.514 9.74031C126.277 9.61734 125.991 9.55262 125.657 9.55262C125.323 9.55262 125.034 9.61411 124.8 9.74031C124.562 9.86328 124.37 10.0316 124.222 10.2387C124.074 10.449 123.965 10.6949 123.898 10.9862C123.83 11.2742 123.795 11.5816 123.795 11.9117V14.4778C123.795 14.8273 123.824 15.1444 123.885 15.4324C123.943 15.7204 124.049 15.9696 124.196 16.1799C124.344 16.3903 124.537 16.5521 124.774 16.6653C125.012 16.7786 125.307 16.8368 125.663 16.8368H125.651Z" fill="white"/>
<path d="M138.778 17.4356H139.045V7.97681H141V18.4193H137.183L135.969 8.96055H135.703V18.4193H133.748V7.97681H137.565L138.778 17.4356Z" fill="white"/>
<path d="M56.2262 32.5216C56.6018 32.5216 56.91 32.4633 57.1508 32.3501C57.3916 32.2368 57.581 32.0815 57.7126 31.8873C57.8443 31.6932 57.9374 31.4699 57.9855 31.2175C58.0337 30.9651 58.0594 30.703 58.0594 30.4344V30.1658H60.0114V30.4344C60.0114 31.677 59.6871 32.6348 59.0418 33.3047C58.3965 33.9745 57.4558 34.3111 56.223 34.3111C54.9901 34.3111 54.1008 33.9487 53.4105 33.2238C52.7203 32.4989 52.3735 31.4408 52.3735 30.0461V27.7194C52.3735 27.0528 52.4634 26.4541 52.64 25.9234C52.8166 25.3927 53.0734 24.9429 53.4105 24.5805C53.7444 24.218 54.149 23.9397 54.6241 23.7456C55.0993 23.5514 55.629 23.4543 56.223 23.4543C56.8169 23.4543 57.3755 23.545 57.8507 23.7229C58.3226 23.9009 58.7207 24.1598 59.0418 24.4996C59.3629 24.8361 59.6036 25.2438 59.7674 25.7228C59.9311 26.2017 60.0114 26.7356 60.0114 27.3343V27.6029H58.0594V27.3343C58.0594 27.0851 58.0305 26.836 57.9695 26.59C57.9085 26.3441 57.8122 26.1176 57.6741 25.9202C57.5361 25.7228 57.3499 25.561 57.1123 25.4348C56.8747 25.3118 56.5793 25.2471 56.223 25.2471C55.8987 25.2471 55.6162 25.3086 55.3786 25.4348C55.141 25.5577 54.9452 25.7292 54.7878 25.9428C54.6305 26.1564 54.515 26.4056 54.4411 26.6871C54.3673 26.9719 54.332 27.2663 54.332 27.5738V30.1981C54.332 30.5347 54.3673 30.8453 54.4347 31.1301C54.5021 31.4149 54.6113 31.6608 54.759 31.8679C54.9066 32.0783 55.1025 32.2401 55.3433 32.3533C55.5841 32.4666 55.8794 32.5248 56.223 32.5248L56.2262 32.5216Z" fill="white"/>
<path d="M69.9702 31.8646H66.4483L65.9442 34.1007H63.9023L66.3745 23.6614H70.0441L72.5162 34.1007H70.4743L69.9702 31.8646ZM66.8625 29.9877H69.54L68.3425 24.6484H68.076L66.8625 29.9877Z" fill="white"/>
<path d="M78.7162 30.1659V34.1041H76.7642V23.6648H80.8191C81.352 23.6648 81.8143 23.7522 82.2092 23.9269C82.6041 24.1017 82.9316 24.3282 83.1948 24.6129C83.4549 24.8977 83.654 25.2181 83.7856 25.5837C83.9204 25.9462 83.9846 26.3183 83.9846 26.6937V27.0529C83.9846 27.4412 83.9172 27.8198 83.7856 28.1952C83.654 28.5673 83.4549 28.9006 83.1948 29.1951C82.9348 29.4896 82.6041 29.7258 82.2092 29.9038C81.8143 30.0818 81.352 30.1724 80.8191 30.1724H78.7194V30.1659H78.7162ZM78.7129 28.2858H80.6232C81.0566 28.2858 81.4002 28.1661 81.6506 27.9266C81.901 27.6871 82.0262 27.3797 82.0262 27.0011V26.8231C82.0262 26.4445 81.901 26.1371 81.6506 25.8976C81.4002 25.6582 81.0566 25.5384 80.6232 25.5384H78.7129V28.2826V28.2858Z" fill="white"/>
<path d="M88.1836 23.6648H95.1087V25.5449H92.6238V32.2272H95.1087V34.1073H88.1836V32.2272H90.6685V25.5449H88.1836V23.6648Z" fill="white"/>
<path d="M99.6357 23.6648H107.094V25.5449H104.342V34.1041H102.39V25.5449H99.639V23.6648H99.6357Z" fill="white"/>
<path d="M116.549 31.8646H113.027L112.523 34.1007H110.481L112.953 23.6614H116.623L119.095 34.1007H117.053L116.549 31.8646ZM113.441 29.9877H116.119L114.921 24.6484H114.655L113.441 29.9877Z" fill="white"/>
<path d="M122.896 23.6648H124.848V32.224H129.555V34.1041H122.896V23.6648Z" fill="white"/>
<path d="M0 0V41H40.6774V0H0ZM9.10185 7.64341H15.8664V9.56235H11.0956V11.9991H15.7765V13.918H11.0956V18.3028H9.10185V7.64341ZM16.2902 27.438H14.2965V27.1629C14.2965 26.9105 14.2676 26.6549 14.2066 26.4024C14.1456 26.15 14.0461 25.9203 13.9048 25.7164C13.7635 25.5126 13.5709 25.3475 13.3301 25.2213C13.0893 25.0951 12.7875 25.0304 12.4247 25.0304C12.0909 25.0304 11.8051 25.0951 11.5643 25.2213C11.3235 25.3475 11.1213 25.5223 10.9607 25.7391C10.8002 25.9591 10.6814 26.2115 10.6044 26.4995C10.5305 26.7875 10.492 27.0917 10.492 27.4056V30.085C10.492 30.4313 10.5273 30.7484 10.598 31.0364C10.6686 31.3244 10.7777 31.5768 10.9319 31.7904C11.0827 32.0039 11.2818 32.169 11.529 32.2855C11.7762 32.402 12.0748 32.4602 12.428 32.4602C12.81 32.4602 13.1246 32.402 13.3719 32.2855C13.6191 32.169 13.8085 32.0104 13.9465 31.813C14.0814 31.6156 14.1745 31.3859 14.2259 31.127C14.2772 30.8681 14.2997 30.6028 14.2997 30.3277V30.0526H16.2934V30.3277C16.2934 31.5962 15.9627 32.5735 15.3046 33.2563C14.6464 33.9423 13.6865 34.2853 12.428 34.2853C11.1694 34.2853 10.2641 33.9164 9.55774 33.1754C8.85464 32.4343 8.50148 31.3535 8.50148 29.9329V27.5577C8.50148 26.8781 8.59138 26.2665 8.77437 25.7229C8.95416 25.1792 9.21743 24.723 9.55774 24.3541C9.90127 23.9852 10.3122 23.7004 10.797 23.503C11.2818 23.3056 11.8244 23.2053 12.428 23.2053C13.0315 23.2053 13.6062 23.2959 14.0878 23.4803C14.5694 23.6648 14.9771 23.9269 15.3046 24.2732C15.6321 24.6194 15.8793 25.0336 16.0462 25.5223C16.2132 26.0109 16.2966 26.5578 16.2966 27.1661V27.4412H16.2902V27.438ZM31.6943 34.0685H27.9027V30.2468H31.6943V34.0685ZM31.6943 18.2963H24.8977V7.64341H26.8914V16.3806H31.6943V18.2995V18.2963Z" fill="white"/>
</g>
<defs>
<clipPath id="clip0_4288_213">
<rect width="141" height="41" fill="white"/>
</clipPath>
</defs>
</svg>
