<svg width="142" height="41" viewBox="0 0 142 41" fill="none" xmlns="http://www.w3.org/2000/svg">
<g clip-path="url(#clip0_4281_79)">
<path d="M53.3462 7.97672H60.023V9.85683H55.312V12.245H59.9324V14.1251H55.312V18.4225H53.3462V7.97672Z" fill="#122545"/>
<path d="M64.2588 12.0347C64.2588 10.682 64.5983 9.63355 65.2805 8.88604C65.9627 8.13853 66.9036 7.76639 68.1064 7.76639C69.3092 7.76639 70.2501 8.13853 70.9323 8.88604C71.6145 9.63355 71.954 10.682 71.954 12.0347V14.3613C71.954 15.7528 71.6145 16.8142 70.9323 17.5391C70.2501 18.2639 69.3092 18.6296 68.1064 18.6296C66.9036 18.6296 65.9627 18.2672 65.2805 17.5391C64.5983 16.8142 64.2588 15.7528 64.2588 14.3613V12.0347ZM68.1064 16.8369C68.4653 16.8369 68.7628 16.7786 69.002 16.6654C69.2413 16.5521 69.4353 16.3903 69.584 16.18C69.7328 15.9696 69.8362 15.7237 69.8977 15.4324C69.9559 15.1444 69.9882 14.8273 69.9882 14.4778V11.9117C69.9882 11.5849 69.9526 11.2742 69.8847 10.9862C69.8136 10.6982 69.7069 10.449 69.5582 10.2387C69.4094 10.0283 69.2154 9.86331 68.9762 9.74034C68.7369 9.61737 68.4491 9.55265 68.1129 9.55265C67.7766 9.55265 67.4856 9.61414 67.2496 9.74034C67.0103 9.86331 66.8163 10.0316 66.6676 10.2387C66.5189 10.449 66.4089 10.695 66.341 10.9862C66.2731 11.2742 66.2376 11.5816 66.2376 11.9117V14.4778C66.2376 14.8273 66.2667 15.1444 66.3281 15.4324C66.3863 15.7205 66.493 15.9696 66.6417 16.18C66.7905 16.3903 66.9845 16.5521 67.2237 16.6654C67.463 16.7786 67.7604 16.8369 68.1193 16.8369H68.1064Z" fill="#122545"/>
<path d="M83.9654 7.97672V14.8111C83.9654 16.0052 83.6485 16.9404 83.018 17.6167C82.3875 18.2931 81.4499 18.6328 80.2083 18.6328C78.9667 18.6328 78.029 18.2963 77.3985 17.6167C76.768 16.9404 76.4512 16.0052 76.4512 14.8111V7.97672H78.4202V14.8111C78.4202 15.4292 78.5658 15.9114 78.8535 16.2576C79.1413 16.6071 79.5939 16.7786 80.2115 16.7786C80.8291 16.7786 81.2785 16.6039 81.5695 16.2576C81.8572 15.9081 82.0027 15.426 82.0027 14.8111V7.97672H83.9654Z" fill="#122545"/>
<path d="M96.1455 18.4193H94.1765V15.2868C94.1765 15.0474 94.115 14.8532 93.9889 14.7043C93.8661 14.5555 93.6591 14.4811 93.3714 14.4811H91.1048V18.4193H89.1357V7.97672H93.1321C93.6688 7.97672 94.1409 8.05114 94.5483 8.2C94.9557 8.34885 95.2952 8.55596 95.57 8.81807C95.8416 9.08019 96.0518 9.38761 96.1973 9.73709C96.3428 10.0866 96.4139 10.4587 96.4139 10.8567V11.2159C96.4139 11.6431 96.3007 12.0444 96.0712 12.4165C95.8416 12.7886 95.4892 13.0766 95.0139 13.274V13.5426C95.3631 13.5814 95.6379 13.7174 95.8416 13.9439C96.0453 14.1736 96.1488 14.4616 96.1488 14.8079V18.4193H96.1455ZM91.1048 12.6009H92.9834C93.4619 12.6009 93.824 12.4877 94.073 12.2644C94.322 12.0411 94.4448 11.724 94.4448 11.3163V11.1383C94.4448 10.7888 94.322 10.4878 94.073 10.2354C93.824 9.98303 93.4619 9.85359 92.9834 9.85359H91.1048V12.5977V12.6009Z" fill="#122545"/>
<path d="M101.972 7.97672H103.941V16.5391H108.681V18.4193H101.972V7.97672Z" fill="#122545"/>
<path d="M111.843 7.97672H118.821V9.85683H116.315V16.5391H118.821V18.4193H111.843V16.5391H114.349V9.85683H111.843V7.97672Z" fill="#122545"/>
<path d="M122.694 12.0347C122.694 10.682 123.033 9.63355 123.716 8.88604C124.398 8.13853 125.339 7.76639 126.541 7.76639C127.744 7.76639 128.685 8.13853 129.367 8.88604C130.05 9.63355 130.389 10.682 130.389 12.0347V14.3613C130.389 15.7528 130.05 16.8142 129.367 17.5391C128.685 18.2639 127.744 18.6296 126.541 18.6296C125.339 18.6296 124.398 18.2672 123.716 17.5391C123.033 16.8142 122.694 15.7528 122.694 14.3613V12.0347ZM126.541 16.8369C126.9 16.8369 127.198 16.7786 127.437 16.6654C127.676 16.5521 127.87 16.3903 128.019 16.18C128.168 15.9696 128.271 15.7237 128.333 15.4324C128.391 15.1444 128.423 14.8273 128.423 14.4778V11.9117C128.423 11.5849 128.388 11.2742 128.32 10.9862C128.249 10.6982 128.142 10.449 127.993 10.2387C127.844 10.0283 127.65 9.86331 127.411 9.74034C127.172 9.61737 126.884 9.55265 126.548 9.55265C126.212 9.55265 125.921 9.61414 125.685 9.74034C125.445 9.86331 125.251 10.0316 125.103 10.2387C124.954 10.449 124.844 10.695 124.776 10.9862C124.708 11.2742 124.673 11.5816 124.673 11.9117V14.4778C124.673 14.8273 124.702 15.1444 124.763 15.4324C124.821 15.7205 124.928 15.9696 125.077 16.18C125.226 16.3903 125.42 16.5521 125.659 16.6654C125.898 16.7786 126.196 16.8369 126.554 16.8369H126.541Z" fill="#122545"/>
<path d="M139.762 17.4355H140.031V7.97672H142V18.4193H138.155L136.933 8.96046H136.665V18.4193H134.696V7.97672H138.54L139.762 17.4355Z" fill="#122545"/>
<path d="M56.6246 32.5217C57.0029 32.5217 57.3133 32.4635 57.5558 32.3502C57.7983 32.2369 57.989 32.0816 58.1216 31.8875C58.2542 31.6933 58.3479 31.47 58.3964 31.2176C58.4449 30.9652 58.4708 30.7031 58.4708 30.4345V30.1659H60.4366V30.4345C60.4366 31.6771 60.1101 32.635 59.4602 33.3048C58.8103 33.9747 57.8629 34.3112 56.6214 34.3112C55.3798 34.3112 54.4841 33.9488 53.789 33.2239C53.0938 32.4991 52.7446 31.4409 52.7446 30.0462V27.7195C52.7446 27.0529 52.8352 26.4542 53.013 25.9235C53.1908 25.3928 53.4495 24.943 53.789 24.5806C54.1252 24.2182 54.5326 23.9399 55.0112 23.7457C55.4897 23.5515 56.0232 23.4545 56.6214 23.4545C57.2195 23.4545 57.7821 23.5451 58.2606 23.7231C58.7359 23.901 59.1369 24.1599 59.4602 24.4997C59.7835 24.8362 60.026 25.244 60.1909 25.7229C60.3558 26.2018 60.4366 26.7358 60.4366 27.3344V27.603H58.4708V27.3344C58.4708 27.0852 58.4417 26.8361 58.3803 26.5901C58.3188 26.3442 58.2218 26.1177 58.0828 25.9203C57.9438 25.7229 57.7562 25.5611 57.517 25.4349C57.2777 25.3119 56.9802 25.2472 56.6214 25.2472C56.2948 25.2472 56.0103 25.3087 55.771 25.4349C55.5317 25.5579 55.3345 25.7294 55.1761 25.9429C55.0176 26.1565 54.9012 26.4057 54.8269 26.6872C54.7525 26.972 54.7169 27.2665 54.7169 27.5739V30.1983C54.7169 30.5348 54.7525 30.8455 54.8204 31.1302C54.8883 31.415 54.9982 31.6609 55.147 31.868C55.2957 32.0784 55.4929 32.2402 55.7354 32.3534C55.9779 32.4667 56.2754 32.5249 56.6214 32.5249L56.6246 32.5217Z" fill="#122545"/>
<path d="M70.4664 31.8648H66.9195L66.4118 34.1009H64.3555L66.8451 23.6616H70.5408L73.0304 34.1009H70.974L70.4664 31.8648ZM67.3366 29.9879H70.0331L68.8271 24.6485H68.5588L67.3366 29.9879Z" fill="#122545"/>
<path d="M79.2739 30.1659V34.1041H77.3081V23.6648H81.3918C81.9285 23.6648 82.3941 23.7522 82.7918 23.9269C83.1895 24.1017 83.5193 24.3282 83.7844 24.6129C84.0463 24.8977 84.2468 25.2181 84.3793 25.5837C84.5151 25.9462 84.5798 26.3183 84.5798 26.6937V27.0529C84.5798 27.4412 84.5119 27.8198 84.3793 28.1952C84.2468 28.5673 84.0463 28.9006 83.7844 29.1951C83.5225 29.4896 83.1895 29.7258 82.7918 29.9038C82.3941 30.0818 81.9285 30.1724 81.3918 30.1724H79.2772V30.1659H79.2739ZM79.2707 28.2858H81.1945C81.631 28.2858 81.977 28.1661 82.2292 27.9266C82.4814 27.6871 82.6075 27.3797 82.6075 27.0011V26.8231C82.6075 26.4445 82.4814 26.1371 82.2292 25.8976C81.977 25.6582 81.631 25.5384 81.1945 25.5384H79.2707V28.2826V28.2858Z" fill="#122545"/>
<path d="M88.8091 23.6648H95.7833V25.5449H93.2807V32.2272H95.7833V34.1073H88.8091V32.2272H91.3117V25.5449H88.8091V23.6648Z" fill="#122545"/>
<path d="M100.342 23.6648H107.853V25.5449H105.082V34.1041H103.116V25.5449H100.345V23.6648H100.342Z" fill="#122545"/>
<path d="M117.375 31.8648H113.828L113.321 34.1009H111.264L113.754 23.6616H117.449L119.939 34.1009H117.883L117.375 31.8648ZM114.245 29.9879H116.942L115.736 24.6485H115.467L114.245 29.9879Z" fill="#122545"/>
<path d="M123.767 23.6648H125.733V32.224H130.473V34.1041H123.767V23.6648Z" fill="#122545"/>
<path d="M0 0V41H40.9659V0H0ZM9.1664 7.64341H15.979V9.56235H11.1743V11.9991H15.8884V13.918H11.1743V18.3028H9.1664V7.64341ZM16.4058 27.438H14.3979V27.1629C14.3979 26.9105 14.3688 26.6549 14.3073 26.4024C14.2459 26.15 14.1457 25.9203 14.0034 25.7164C13.8612 25.5126 13.6672 25.3475 13.4247 25.2213C13.1822 25.0951 12.8782 25.0304 12.5129 25.0304C12.1766 25.0304 11.8888 25.0951 11.6463 25.2213C11.4038 25.3475 11.2001 25.5223 11.0385 25.7391C10.8768 25.9591 10.7572 26.2115 10.6796 26.4995C10.6052 26.7875 10.5664 27.0917 10.5664 27.4056V30.085C10.5664 30.4313 10.602 30.7484 10.6731 31.0364C10.7443 31.3244 10.8542 31.5768 11.0094 31.7904C11.1613 32.0039 11.3618 32.169 11.6108 32.2855C11.8597 32.402 12.1604 32.4602 12.5161 32.4602C12.9009 32.4602 13.2177 32.402 13.4667 32.2855C13.7157 32.169 13.9064 32.0104 14.0454 31.813C14.1812 31.6156 14.275 31.3859 14.3267 31.127C14.3785 30.8681 14.4011 30.6028 14.4011 30.3277V30.0526H16.409V30.3277C16.409 31.5962 16.076 32.5735 15.4131 33.2563C14.7503 33.9423 13.7836 34.2853 12.5161 34.2853C11.2486 34.2853 10.3369 33.9164 9.62553 33.1754C8.91744 32.4343 8.56177 31.3535 8.56177 29.9329V27.5577C8.56177 26.8781 8.65231 26.2665 8.8366 25.7229C9.01767 25.1792 9.2828 24.723 9.62553 24.3541C9.97149 23.9852 10.3854 23.7004 10.8736 23.503C11.3618 23.3056 11.9082 23.2053 12.5161 23.2053C13.124 23.2053 13.7027 23.2959 14.1877 23.4803C14.6727 23.6648 15.0833 23.9269 15.4131 24.2732C15.7429 24.6194 15.9919 25.0336 16.16 25.5223C16.3282 26.0109 16.4122 26.5578 16.4122 27.1661V27.4412H16.4058V27.438ZM31.9191 34.0685H28.1006V30.2468H31.9191V34.0685ZM31.9191 18.2963H25.0742V7.64341H27.0821V16.3806H31.9191V18.2995V18.2963Z" fill="#122545"/>
</g>
<defs>
<clipPath id="clip0_4281_79">
<rect width="142" height="41" fill="white"/>
</clipPath>
</defs>
</svg>
