<svg width="29" height="39" viewBox="0 0 29 39" fill="none" xmlns="http://www.w3.org/2000/svg">
<path d="M12.0833 0C13.4201 0 14.5 1.08926 14.5 2.4375V10.9688H9.66667V2.4375C9.66667 1.08926 10.7466 0 12.0833 0ZM2.41667 4.875C2.41667 3.52676 3.49661 2.4375 4.83333 2.4375C6.17005 2.4375 7.25 3.52676 7.25 4.875V10.9688H2.41667V4.875ZM16.9167 4.875C16.9167 3.52676 17.9966 2.4375 19.3333 2.4375C20.6701 2.4375 21.75 3.52676 21.75 4.875V12.1875C21.75 13.5357 20.6701 14.625 19.3333 14.625C17.9966 14.625 16.9167 13.5357 16.9167 12.1875V4.875ZM24.1667 9.75C24.1667 8.40176 25.2466 7.3125 26.5833 7.3125C27.9201 7.3125 29 8.40176 29 9.75V14.625C29 15.9732 27.9201 17.0625 26.5833 17.0625C25.2466 17.0625 24.1667 15.9732 24.1667 14.625V9.75ZM16.9167 16.4531V16.4074C17.6266 16.8187 18.4497 17.0625 19.3333 17.0625C20.3302 17.0625 21.2516 16.7578 22.0219 16.2398C22.6789 18.1365 24.4763 19.5 26.5833 19.5C27.4669 19.5 28.2901 19.2639 29 18.8449V19.5C29 23.4838 27.1044 27.0258 24.1667 29.25V36.5625C24.1667 37.9107 23.0867 39 21.75 39H9.66667C8.32995 39 7.25 37.9107 7.25 36.5625V30.5906C5.94349 29.9889 4.74271 29.1586 3.70807 28.115L2.83203 27.2314C1.01953 25.4033 0 22.9201 0 20.3379V18.2812C0 15.5924 2.16745 13.4062 4.83333 13.4062H11.4792C13.1482 13.4062 14.5 14.7697 14.5 16.4531C14.5 18.1365 13.1482 19.5 11.4792 19.5H7.25C6.58542 19.5 6.04167 20.0484 6.04167 20.7188C6.04167 21.3891 6.58542 21.9375 7.25 21.9375H11.4792C14.4849 21.9375 16.9167 19.4848 16.9167 16.4531Z" fill="white"/>
</svg>
