<svg width="29" height="33" viewBox="0 0 29 33" fill="none" xmlns="http://www.w3.org/2000/svg">
<path d="M27.1875 0H23.5625C23.0818 0 22.6208 0.19324 22.2809 0.53721C21.941 0.881179 21.75 1.3477 21.75 1.83415V33H29V1.83415C29 1.3477 28.809 0.881179 28.4691 0.53721C28.1292 0.19324 27.6682 0 27.1875 0ZM16.3125 11.0049H12.6875C12.2068 11.0049 11.7458 11.1981 11.4059 11.5421C11.066 11.8861 10.875 12.3526 10.875 12.839V33H18.125V12.839C18.125 12.3526 17.934 11.8861 17.5941 11.5421C17.2542 11.1981 16.7932 11.0049 16.3125 11.0049ZM5.4375 22.0098H1.8125C1.3318 22.0098 0.870779 22.203 0.530869 22.547C0.190959 22.891 0 23.3575 0 23.8439V33H7.25V23.8439C7.25 23.3575 7.05904 22.891 6.71913 22.547C6.37922 22.203 5.9182 22.0098 5.4375 22.0098Z" fill="white"/>
</svg>
