<svg width="28" height="35" viewBox="0 0 28 35" fill="none" xmlns="http://www.w3.org/2000/svg">
<path d="M16.8715 3.26417C16.7255 1.18021 14.7338 -0.429517 12.5871 0.102606L12.001 0.247324C11.4636 0.37229 10.9696 0.637343 10.57 1.01507C10.1705 1.3928 9.88004 1.86949 9.72861 2.39585C9.23461 4.21264 8.53177 7.9887 9.58939 12.4371C9.28251 12.3926 8.95093 12.3548 8.59465 12.3236C6.99363 12.1789 4.84696 12.1655 2.94504 12.7934C1.78189 13.1786 0.713047 14.3074 0.25048 15.6254C0.0196416 16.2636 -0.05312 16.9474 0.0383221 17.6193C0.129766 18.2912 0.382738 18.9314 0.77592 19.4861C0.645683 19.7488 0.544635 20.0249 0.466045 20.2921C0.293144 20.8932 0.212306 21.5567 0.212306 22.1979C0.212306 22.8436 0.293143 23.5026 0.466044 24.106C0.552653 24.4171 0.673119 24.7179 0.825318 25.0032C0.445834 25.8649 0.585053 26.8289 0.832055 27.5614C1.08649 28.2833 1.45649 28.9599 1.92785 29.5652C1.80659 29.9059 1.75719 30.2621 1.75719 30.6005C1.76681 31.3146 1.96252 32.0141 2.32529 32.6311C3.07528 33.938 4.56403 35 6.66803 35L14.5272 35C15.8857 35 16.9298 34.8219 17.819 34.5169C18.5839 34.2397 19.3146 33.8774 19.9971 33.437L20.1049 33.3725C21.2366 32.6867 22.3482 32.0143 24.7486 31.7627C26.4686 31.5824 28 30.2042 28 28.3229L28 19.4171C28 17.5224 26.4619 16.2266 24.9529 15.8191C23.0465 15.3026 21.4185 14.0669 20.1656 12.6798C18.9081 11.2861 18.1132 9.82997 17.8325 9.0329C17.3857 7.75269 17.0331 5.60417 16.8715 3.26417Z" fill="white"/>
</svg>
