<svg width="32" height="33" viewBox="0 0 32 33" fill="none" xmlns="http://www.w3.org/2000/svg">
<path fill-rule="evenodd" clip-rule="evenodd" d="M16.0832 0H15.9168C14.4784 0 13.28 7.10947e-08 12.3296 0.127229C11.3248 0.260819 10.4176 0.556627 9.6896 1.28024C8.96 2.00545 8.6624 2.90718 8.528 3.90434C8.4368 4.58342 8.4096 6.204 8.4032 7.59398C5.168 7.70053 3.224 8.07586 1.8752 9.41812C-1.90735e-07 11.2804 0 14.2799 0 20.2771C0 26.2744 -1.90735e-07 29.2738 1.8752 31.1361C3.7504 32.9984 6.7664 33 12.8 33H19.2C25.2336 33 28.2512 33 30.1248 31.1361C31.9984 29.2722 32 26.2744 32 20.2771C32 14.2799 32 11.2804 30.1248 9.41812C28.776 8.07586 26.832 7.70053 23.5968 7.59557C23.5904 6.204 23.5648 4.58342 23.472 3.90593C23.3376 2.90718 23.04 2.00545 22.3104 1.28183C21.5824 0.556626 20.6752 0.260819 19.6704 0.127229C18.72 7.10947e-08 17.52 0 16.0832 0ZM21.1968 7.5574C21.1888 6.21036 21.1664 4.76154 21.0944 4.22241C20.9936 3.48925 20.8224 3.17436 20.6144 2.96761C20.4064 2.76087 20.0896 2.5907 19.3504 2.49051C18.5792 2.38872 17.5424 2.38554 16 2.38554C14.4576 2.38554 13.4208 2.38872 12.648 2.4921C11.9104 2.5907 11.5936 2.76087 11.3856 2.96921C11.1776 3.17754 11.0064 3.48925 10.9056 4.22241C10.8336 4.76313 10.8096 6.21036 10.8032 7.5574C11.4304 7.55422 12.096 7.55316 12.8 7.55422H19.2C19.9061 7.55422 20.5717 7.55528 21.1968 7.5574ZM16 12.7229C16.3183 12.7229 16.6235 12.8486 16.8485 13.0722C17.0736 13.2959 17.2 13.5993 17.2 13.9157V13.9316C18.9424 14.3673 20.4 15.7334 20.4 17.626C20.4 17.9423 20.2736 18.2457 20.0485 18.4694C19.8235 18.6931 19.5183 18.8187 19.2 18.8187C18.8817 18.8187 18.5765 18.6931 18.3515 18.4694C18.1264 18.2457 18 17.9423 18 17.626C18 17.0153 17.3184 16.1692 16 16.1692C14.6816 16.1692 14 17.0153 14 17.626C14 18.2367 14.6816 19.0843 16 19.0843C18.216 19.0843 20.4 20.6111 20.4 22.9282C20.4 24.8208 18.9424 26.1853 17.2 26.6227V26.6386C17.2 26.9549 17.0736 27.2583 16.8485 27.482C16.6235 27.7057 16.3183 27.8313 16 27.8313C15.6817 27.8313 15.3765 27.7057 15.1515 27.482C14.9264 27.2583 14.8 26.9549 14.8 26.6386V26.6227C13.0576 26.1869 11.6 24.8208 11.6 22.9282C11.6 22.6119 11.7264 22.3085 11.9515 22.0848C12.1765 21.8611 12.4817 21.7355 12.8 21.7355C13.1183 21.7355 13.4235 21.8611 13.6485 22.0848C13.8736 22.3085 14 22.6119 14 22.9282C14 23.5389 14.6816 24.385 16 24.385C17.3184 24.385 18 23.5389 18 22.9282C18 22.3175 17.3184 21.4699 16 21.4699C13.784 21.4699 11.6 19.9431 11.6 17.626C11.6 15.7334 13.0576 14.3673 14.8 13.9316V13.9157C14.8 13.5993 14.9264 13.2959 15.1515 13.0722C15.3765 12.8486 15.6817 12.7229 16 12.7229Z" fill="white"/>
</svg>
