<svg width="30" height="33" viewBox="0 0 30 33" fill="none" xmlns="http://www.w3.org/2000/svg">
<path d="M27.8404 11.1247C28.0386 8.76835 28.7492 6.60513 30 4.62153L25.2005 0C23.6846 1.25659 21.9569 1.95296 20.0012 2.07555C18.208 2.23165 16.5089 1.90378 14.9095 1.08981C13.266 1.87669 11.5732 2.2067 9.80926 2.07555C8.01382 1.93215 6.29684 1.27827 4.86082 0.191019L0.0492205 4.81112C1.23305 6.82252 1.89232 8.9273 2.02133 11.1247C2.08262 12.1361 1.78328 13.5303 1.10975 15.33C0.804063 16.1799 0.536994 17.0432 0.309365 17.9173C0.141162 18.6365 0.0363916 19.2195 0.000755379 19.6579C-0.0234772 21.5759 0.535298 23.3079 1.68136 24.8482C2.57725 25.9722 4.05473 27.2138 6.10594 28.5716C8.3496 29.6714 10.0865 30.3849 11.3031 30.6892L12.3123 31.1418C12.6295 31.2872 12.9695 31.4305 13.3237 31.5859C14.0899 32.0278 14.6266 32.5061 14.9095 33C15.2573 32.4647 15.8068 31.9993 16.5367 31.5859C16.9742 31.4052 17.4081 31.2158 17.8381 31.0178L18.6 30.6899C18.8601 30.5666 19.2001 30.4241 19.6135 30.2666C20.125 30.0716 20.6391 29.8836 21.1558 29.7028C22.3411 29.2994 23.2042 28.9166 23.7523 28.5716C25.7422 27.2145 27.1969 25.9922 28.1227 24.9009C29.3094 23.3557 29.8867 21.6151 29.8603 19.6593C29.7897 18.7826 29.4042 17.3813 28.7043 15.4718C28.0386 13.6108 27.7442 12.1668 27.8404 11.1247Z" fill="white"/>
</svg>
